<?xml version="1.0" encoding="utf-8" ?>
<svg baseProfile="tiny" height="506" version="1.2" width="900" xmlns="http://www.w3.org/2000/svg" xmlns:ev="http://www.w3.org/2001/xml-events" xmlns:xlink="http://www.w3.org/1999/xlink"><defs /><polygon fill="rgb(23,196,239)" points="0,-17.3205 20,-17.3205 30.0,0.0 20,17.3205 0,17.3205 -10.0,0.0" /><polygon fill="rgb(24,191,243)" points="0,17.3205 20,17.3205 30.0,34.641 20,51.9615 0,51.9615 -10.0,34.641" /><polygon fill="rgb(28,183,247)" points="0,51.9615 20,51.9615 30.0,69.282 20,86.6025 0,86.6025 -10.0,69.282" /><polygon fill="rgb(40,204,231)" points="0,86.6025 20,86.6025 30.0,103.923 20,121.2436 0,121.2436 -10.0,103.923" /><polygon fill="rgb(68,221,219)" points="0,121.2436 20,121.2436 30.0,138.5641 20,155.8846 0,155.8846 -10.0,138.5641" /><polygon fill="rgb(67,221,221)" points="0,155.8846 20,155.8846 30.0,173.2051 20,190.5256 0,190.5256 -10.0,173.2051" /><polygon fill="rgb(67,222,216)" points="0,190.5256 20,190.5256 30.0,207.8461 20,225.1666 0,225.1666 -10.0,207.8461" /><polygon fill="rgb(197,148,152)" points="0,225.1666 20,225.1666 30.0,242.4871 20,259.8076 0,259.8076 -10.0,242.4871" /><polygon fill="rgb(226,132,130)" points="0,259.8076 20,259.8076 30.0,277.1281 20,294.4486 0,294.4486 -10.0,277.1281" /><polygon fill="rgb(228,139,131)" points="0,294.4486 20,294.4486 30.0,311.7691 20,329.0897 0,329.0897 -10.0,311.7691" /><polygon fill="rgb(254,122,117)" points="0,329.0897 20,329.0897 30.0,346.4102 20,363.7307 0,363.7307 -10.0,346.4102" /><polygon fill="rgb(247,103,130)" points="0,363.7307 20,363.7307 30.0,381.0512 20,398.3717 0,398.3717 -10.0,381.0512" /><polygon fill="rgb(172,97,120)" points="0,398.3717 20,398.3717 30.0,415.6922 20,433.0127 0,433.0127 -10.0,415.6922" /><polygon fill="rgb(137,85,131)" points="0,433.0127 20,433.0127 30.0,450.3332 20,467.6537 0,467.6537 -10.0,450.3332" /><polygon fill="rgb(101,87,138)" points="0,467.6537 20,467.6537 30.0,484.9742 20,502.2947 0,502.2947 -10.0,484.9742" /><polygon fill="rgb(27,104,132)" points="0,502.2947 20,502.2947 30.0,519.6152 20,536.9358 0,536.9358 -10.0,519.6152" /><polygon fill="rgb(26,190,243)" points="30.0,0.0 50.0,0.0 60.0,17.3205 50.0,34.641 30.0,34.641 20.0,17.3205" /><polygon fill="rgb(25,190,244)" points="30.0,34.641 50.0,34.641 60.0,51.9615 50.0,69.282 30.0,69.282 20.0,51.9615" /><polygon fill="rgb(27,180,250)" points="30.0,69.282 50.0,69.282 60.0,86.6025 50.0,103.923 30.0,103.923 20.0,86.6025" /><polygon fill="rgb(26,176,252)" points="30.0,103.923 50.0,103.923 60.0,121.2436 50.0,138.5641 30.0,138.5641 20.0,121.2436" /><polygon fill="rgb(28,178,254)" points="30.0,138.5641 50.0,138.5641 60.0,155.8846 50.0,173.2051 30.0,173.2051 20.0,155.8846" /><polygon fill="rgb(66,222,219)" points="30.0,173.2051 50.0,173.2051 60.0,190.5256 50.0,207.8461 30.0,207.8461 20.0,190.5256" /><polygon fill="rgb(67,222,218)" points="30.0,207.8461 50.0,207.8461 60.0,225.1666 50.0,242.4871 30.0,242.4871 20.0,225.1666" /><polygon fill="rgb(144,195,176)" points="30.0,242.4871 50.0,242.4871 60.0,259.8076 50.0,277.1281 30.0,277.1281 20.0,259.8076" /><polygon fill="rgb(250,114,118)" points="30.0,277.1281 50.0,277.1281 60.0,294.4486 50.0,311.7691 30.0,311.7691 20.0,294.4486" /><polygon fill="rgb(244,106,121)" points="30.0,311.7691 50.0,311.7691 60.0,329.0897 50.0,346.4102 30.0,346.4102 20.0,329.0897" /><polygon fill="rgb(223,99,125)" points="30.0,346.4102 50.0,346.4102 60.0,363.7307 50.0,381.0512 30.0,381.0512 20.0,363.7307" /><polygon fill="rgb(176,100,126)" points="30.0,381.0512 50.0,381.0512 60.0,398.3717 50.0,415.6922 30.0,415.6922 20.0,398.3717" /><polygon fill="rgb(60,95,135)" points="30.0,415.6922 50.0,415.6922 60.0,433.0127 50.0,450.3332 30.0,450.3332 20.0,433.0127" /><polygon fill="rgb(24,104,131)" points="30.0,450.3332 50.0,450.3332 60.0,467.6537 50.0,484.9742 30.0,484.9742 20.0,467.6537" /><polygon fill="rgb(27,104,134)" points="30.0,484.9742 50.0,484.9742 60.0,502.2947 50.0,519.6152 30.0,519.6152 20.0,502.2947" /><polygon fill="rgb(27,187,245)" points="60.0,-17.3205 80.0,-17.3205 90.0,0.0 80.0,17.3205 60.0,17.3205 50.0,0.0" /><polygon fill="rgb(28,186,251)" points="60.0,17.3205 80.0,17.3205 90.0,34.641 80.0,51.9615 60.0,51.9615 50.0,34.641" /><polygon fill="rgb(25,177,250)" points="60.0,51.9615 80.0,51.9615 90.0,69.282 80.0,86.6025 60.0,86.6025 50.0,69.282" /><polygon fill="rgb(28,179,252)" points="60.0,86.6025 80.0,86.6025 90.0,103.923 80.0,121.2436 60.0,121.2436 50.0,103.923" /><polygon fill="rgb(28,175,253)" points="60.0,121.2436 80.0,121.2436 90.0,138.5641 80.0,155.8846 60.0,155.8846 50.0,138.5641" /><polygon fill="rgb(26,178,251)" points="60.0,155.8846 80.0,155.8846 90.0,173.2051 80.0,190.5256 60.0,190.5256 50.0,173.2051" /><polygon fill="rgb(57,222,216)" points="60.0,190.5256 80.0,190.5256 90.0,207.8461 80.0,225.1666 60.0,225.1666 50.0,207.8461" /><polygon fill="rgb(151,214,171)" points="60.0,225.1666 80.0,225.1666 90.0,242.4871 80.0,259.8076 60.0,259.8076 50.0,242.4871" /><polygon fill="rgb(234,184,115)" points="60.0,259.8076 80.0,259.8076 90.0,277.1281 80.0,294.4486 60.0,294.4486 50.0,277.1281" /><polygon fill="rgb(250,112,110)" points="60.0,294.4486 80.0,294.4486 90.0,311.7691 80.0,329.0897 60.0,329.0897 50.0,311.7691" /><polygon fill="rgb(170,114,127)" points="60.0,329.0897 80.0,329.0897 90.0,346.4102 80.0,363.7307 60.0,363.7307 50.0,346.4102" /><polygon fill="rgb(71,88,134)" points="60.0,363.7307 80.0,363.7307 90.0,381.0512 80.0,398.3717 60.0,398.3717 50.0,381.0512" /><polygon fill="rgb(97,101,138)" points="60.0,398.3717 80.0,398.3717 90.0,415.6922 80.0,433.0127 60.0,433.0127 50.0,415.6922" /><polygon fill="rgb(27,102,133)" points="60.0,433.0127 80.0,433.0127 90.0,450.3332 80.0,467.6537 60.0,467.6537 50.0,450.3332" /><polygon fill="rgb(27,104,134)" points="60.0,467.6537 80.0,467.6537 90.0,484.9742 80.0,502.2947 60.0,502.2947 50.0,484.9742" /><polygon fill="rgb(26,103,133)" points="60.0,502.2947 80.0,502.2947 90.0,519.6152 80.0,536.9358 60.0,536.9358 50.0,519.6152" /><polygon fill="rgb(28,173,252)" points="90.0,0.0 110.0,0.0 120.0,17.3205 110.0,34.641 90.0,34.641 80.0,17.3205" /><polygon fill="rgb(30,177,254)" points="90.0,34.641 110.0,34.641 120.0,51.9615 110.0,69.282 90.0,69.282 80.0,51.9615" /><polygon fill="rgb(28,175,252)" points="90.0,69.282 110.0,69.282 120.0,86.6025 110.0,103.923 90.0,103.923 80.0,86.6025" /><polygon fill="rgb(28,175,253)" points="90.0,103.923 110.0,103.923 120.0,121.2436 110.0,138.5641 90.0,138.5641 80.0,121.2436" /><polygon fill="rgb(29,176,243)" points="90.0,138.5641 110.0,138.5641 120.0,155.8846 110.0,173.2051 90.0,173.2051 80.0,155.8846" /><polygon fill="rgb(38,212,223)" points="90.0,173.2051 110.0,173.2051 120.0,190.5256 110.0,207.8461 90.0,207.8461 80.0,190.5256" /><polygon fill="rgb(255,104,128)" points="90.0,207.8461 110.0,207.8461 120.0,225.1666 110.0,242.4871 90.0,242.4871 80.0,225.1666" /><polygon fill="rgb(207,198,131)" points="90.0,242.4871 110.0,242.4871 120.0,259.8076 110.0,277.1281 90.0,277.1281 80.0,259.8076" /><polygon fill="rgb(241,108,111)" points="90.0,277.1281 110.0,277.1281 120.0,294.4486 110.0,311.7691 90.0,311.7691 80.0,294.4486" /><polygon fill="rgb(244,103,120)" points="90.0,311.7691 110.0,311.7691 120.0,329.0897 110.0,346.4102 90.0,346.4102 80.0,329.0897" /><polygon fill="rgb(72,103,134)" points="90.0,346.4102 110.0,346.4102 120.0,363.7307 110.0,381.0512 90.0,381.0512 80.0,363.7307" /><polygon fill="rgb(80,92,132)" points="90.0,381.0512 110.0,381.0512 120.0,398.3717 110.0,415.6922 90.0,415.6922 80.0,398.3717" /><polygon fill="rgb(29,103,132)" points="90.0,415.6922 110.0,415.6922 120.0,433.0127 110.0,450.3332 90.0,450.3332 80.0,433.0127" /><polygon fill="rgb(28,104,130)" points="90.0,450.3332 110.0,450.3332 120.0,467.6537 110.0,484.9742 90.0,484.9742 80.0,467.6537" /><polygon fill="rgb(27,104,134)" points="90.0,484.9742 110.0,484.9742 120.0,502.2947 110.0,519.6152 90.0,519.6152 80.0,502.2947" /><polygon fill="rgb(26,176,253)" points="120.0,-17.3205 140.0,-17.3205 150.0,0.0 140.0,17.3205 120.0,17.3205 110.0,0.0" /><polygon fill="rgb(27,174,252)" points="120.0,17.3205 140.0,17.3205 150.0,34.641 140.0,51.9615 120.0,51.9615 110.0,34.641" /><polygon fill="rgb(125,232,212)" points="120.0,51.9615 140.0,51.9615 150.0,69.282 140.0,86.6025 120.0,86.6025 110.0,69.282" /><polygon fill="rgb(29,174,253)" points="120.0,86.6025 140.0,86.6025 150.0,103.923 140.0,121.2436 120.0,121.2436 110.0,103.923" /><polygon fill="rgb(29,175,250)" points="120.0,121.2436 140.0,121.2436 150.0,138.5641 140.0,155.8846 120.0,155.8846 110.0,138.5641" /><polygon fill="rgb(63,201,211)" points="120.0,155.8846 140.0,155.8846 150.0,173.2051 140.0,190.5256 120.0,190.5256 110.0,173.2051" /><polygon fill="rgb(106,214,198)" points="120.0,190.5256 140.0,190.5256 150.0,207.8461 140.0,225.1666 120.0,225.1666 110.0,207.8461" /><polygon fill="rgb(168,106,127)" points="120.0,225.1666 140.0,225.1666 150.0,242.4871 140.0,259.8076 120.0,259.8076 110.0,242.4871" /><polygon fill="rgb(248,107,123)" points="120.0,259.8076 140.0,259.8076 150.0,277.1281 140.0,294.4486 120.0,294.4486 110.0,277.1281" /><polygon fill="rgb(249,109,110)" points="120.0,294.4486 140.0,294.4486 150.0,311.7691 140.0,329.0897 120.0,329.0897 110.0,311.7691" /><polygon fill="rgb(160,89,121)" points="120.0,329.0897 140.0,329.0897 150.0,346.4102 140.0,363.7307 120.0,363.7307 110.0,346.4102" /><polygon fill="rgb(121,89,139)" points="120.0,363.7307 140.0,363.7307 150.0,381.0512 140.0,398.3717 120.0,398.3717 110.0,381.0512" /><polygon fill="rgb(67,94,137)" points="120.0,398.3717 140.0,398.3717 150.0,415.6922 140.0,433.0127 120.0,433.0127 110.0,415.6922" /><polygon fill="rgb(27,104,134)" points="120.0,433.0127 140.0,433.0127 150.0,450.3332 140.0,467.6537 120.0,467.6537 110.0,450.3332" /><polygon fill="rgb(27,104,134)" points="120.0,467.6537 140.0,467.6537 150.0,484.9742 140.0,502.2947 120.0,502.2947 110.0,484.9742" /><polygon fill="rgb(27,102,133)" points="120.0,502.2947 140.0,502.2947 150.0,519.6152 140.0,536.9358 120.0,536.9358 110.0,519.6152" /><polygon fill="rgb(28,175,253)" points="150.0,0.0 170.0,0.0 180.0,17.3205 170.0,34.641 150.0,34.641 140.0,17.3205" /><polygon fill="rgb(25,175,251)" points="150.0,34.641 170.0,34.641 180.0,51.9615 170.0,69.282 150.0,69.282 140.0,51.9615" /><polygon fill="rgb(27,174,252)" points="150.0,69.282 170.0,69.282 180.0,86.6025 170.0,103.923 150.0,103.923 140.0,86.6025" /><polygon fill="rgb(240,199,94)" points="150.0,103.923 170.0,103.923 180.0,121.2436 170.0,138.5641 150.0,138.5641 140.0,121.2436" /><polygon fill="rgb(43,171,244)" points="150.0,138.5641 170.0,138.5641 180.0,155.8846 170.0,173.2051 150.0,173.2051 140.0,155.8846" /><polygon fill="rgb(88,182,208)" points="150.0,173.2051 170.0,173.2051 180.0,190.5256 170.0,207.8461 150.0,207.8461 140.0,190.5256" /><polygon fill="rgb(172,206,179)" points="150.0,207.8461 170.0,207.8461 180.0,225.1666 170.0,242.4871 150.0,242.4871 140.0,225.1666" /><polygon fill="rgb(244,113,127)" points="150.0,242.4871 170.0,242.4871 180.0,259.8076 170.0,277.1281 150.0,277.1281 140.0,259.8076" /><polygon fill="rgb(252,101,118)" points="150.0,277.1281 170.0,277.1281 180.0,294.4486 170.0,311.7691 150.0,311.7691 140.0,294.4486" /><polygon fill="rgb(191,97,123)" points="150.0,311.7691 170.0,311.7691 180.0,329.0897 170.0,346.4102 150.0,346.4102 140.0,329.0897" /><polygon fill="rgb(125,90,132)" points="150.0,346.4102 170.0,346.4102 180.0,363.7307 170.0,381.0512 150.0,381.0512 140.0,363.7307" /><polygon fill="rgb(87,85,134)" points="150.0,381.0512 170.0,381.0512 180.0,398.3717 170.0,415.6922 150.0,415.6922 140.0,398.3717" /><polygon fill="rgb(40,100,134)" points="150.0,415.6922 170.0,415.6922 180.0,433.0127 170.0,450.3332 150.0,450.3332 140.0,433.0127" /><polygon fill="rgb(26,103,133)" points="150.0,450.3332 170.0,450.3332 180.0,467.6537 170.0,484.9742 150.0,484.9742 140.0,467.6537" /><polygon fill="rgb(27,104,134)" points="150.0,484.9742 170.0,484.9742 180.0,502.2947 170.0,519.6152 150.0,519.6152 140.0,502.2947" /><polygon fill="rgb(34,170,254)" points="180.0,-17.3205 200.0,-17.3205 210.0,0.0 200.0,17.3205 180.0,17.3205 170.0,0.0" /><polygon fill="rgb(28,175,255)" points="180.0,17.3205 200.0,17.3205 210.0,34.641 200.0,51.9615 180.0,51.9615 170.0,34.641" /><polygon fill="rgb(57,214,221)" points="180.0,51.9615 200.0,51.9615 210.0,69.282 200.0,86.6025 180.0,86.6025 170.0,69.282" /><polygon fill="rgb(28,175,253)" points="180.0,86.6025 200.0,86.6025 210.0,103.923 200.0,121.2436 180.0,121.2436 170.0,103.923" /><polygon fill="rgb(14,200,247)" points="180.0,121.2436 200.0,121.2436 210.0,138.5641 200.0,155.8846 180.0,155.8846 170.0,138.5641" /><polygon fill="rgb(154,207,163)" points="180.0,155.8846 200.0,155.8846 210.0,173.2051 200.0,190.5256 180.0,190.5256 170.0,173.2051" /><polygon fill="rgb(147,104,124)" points="180.0,190.5256 200.0,190.5256 210.0,207.8461 200.0,225.1666 180.0,225.1666 170.0,207.8461" /><polygon fill="rgb(197,110,126)" points="180.0,225.1666 200.0,225.1666 210.0,242.4871 200.0,259.8076 180.0,259.8076 170.0,242.4871" /><polygon fill="rgb(176,96,125)" points="180.0,259.8076 200.0,259.8076 210.0,277.1281 200.0,294.4486 180.0,294.4486 170.0,277.1281" /><polygon fill="rgb(131,93,134)" points="180.0,294.4486 200.0,294.4486 210.0,311.7691 200.0,329.0897 180.0,329.0897 170.0,311.7691" /><polygon fill="rgb(43,99,126)" points="180.0,329.0897 200.0,329.0897 210.0,346.4102 200.0,363.7307 180.0,363.7307 170.0,346.4102" /><polygon fill="rgb(101,84,136)" points="180.0,363.7307 200.0,363.7307 210.0,381.0512 200.0,398.3717 180.0,398.3717 170.0,381.0512" /><polygon fill="rgb(35,102,129)" points="180.0,398.3717 200.0,398.3717 210.0,415.6922 200.0,433.0127 180.0,433.0127 170.0,415.6922" /><polygon fill="rgb(28,103,134)" points="180.0,433.0127 200.0,433.0127 210.0,450.3332 200.0,467.6537 180.0,467.6537 170.0,450.3332" /><polygon fill="rgb(27,102,131)" points="180.0,467.6537 200.0,467.6537 210.0,484.9742 200.0,502.2947 180.0,502.2947 170.0,484.9742" /><polygon fill="rgb(26,103,133)" points="180.0,502.2947 200.0,502.2947 210.0,519.6152 200.0,536.9358 180.0,536.9358 170.0,519.6152" /><polygon fill="rgb(30,182,249)" points="210.0,0.0 230.0,0.0 240.0,17.3205 230.0,34.641 210.0,34.641 200.0,17.3205" /><polygon fill="rgb(71,216,219)" points="210.0,34.641 230.0,34.641 240.0,51.9615 230.0,69.282 210.0,69.282 200.0,51.9615" /><polygon fill="rgb(78,225,209)" points="210.0,69.282 230.0,69.282 240.0,86.6025 230.0,103.923 210.0,103.923 200.0,86.6025" /><polygon fill="rgb(31,193,240)" points="210.0,103.923 230.0,103.923 240.0,121.2436 230.0,138.5641 210.0,138.5641 200.0,121.2436" /><polygon fill="rgb(62,195,200)" points="210.0,138.5641 230.0,138.5641 240.0,155.8846 230.0,173.2051 210.0,173.2051 200.0,155.8846" /><polygon fill="rgb(97,225,202)" points="210.0,173.2051 230.0,173.2051 240.0,190.5256 230.0,207.8461 210.0,207.8461 200.0,190.5256" /><polygon fill="rgb(230,177,127)" points="210.0,207.8461 230.0,207.8461 240.0,225.1666 230.0,242.4871 210.0,242.4871 200.0,225.1666" /><polygon fill="rgb(230,111,113)" points="210.0,242.4871 230.0,242.4871 240.0,259.8076 230.0,277.1281 210.0,277.1281 200.0,259.8076" /><polygon fill="rgb(121,86,128)" points="210.0,277.1281 230.0,277.1281 240.0,294.4486 230.0,311.7691 210.0,311.7691 200.0,294.4486" /><polygon fill="rgb(94,91,138)" points="210.0,311.7691 230.0,311.7691 240.0,329.0897 230.0,346.4102 210.0,346.4102 200.0,329.0897" /><polygon fill="rgb(48,98,133)" points="210.0,346.4102 230.0,346.4102 240.0,363.7307 230.0,381.0512 210.0,381.0512 200.0,363.7307" /><polygon fill="rgb(39,100,131)" points="210.0,381.0512 230.0,381.0512 240.0,398.3717 230.0,415.6922 210.0,415.6922 200.0,398.3717" /><polygon fill="rgb(29,102,134)" points="210.0,415.6922 230.0,415.6922 240.0,433.0127 230.0,450.3332 210.0,450.3332 200.0,433.0127" /><polygon fill="rgb(27,104,134)" points="210.0,450.3332 230.0,450.3332 240.0,467.6537 230.0,484.9742 210.0,484.9742 200.0,467.6537" /><polygon fill="rgb(27,102,133)" points="210.0,484.9742 230.0,484.9742 240.0,502.2947 230.0,519.6152 210.0,519.6152 200.0,502.2947" /><polygon fill="rgb(33,188,244)" points="240.0,-17.3205 260.0,-17.3205 270.0,0.0 260.0,17.3205 240.0,17.3205 230.0,0.0" /><polygon fill="rgb(185,209,161)" points="240.0,17.3205 260.0,17.3205 270.0,34.641 260.0,51.9615 240.0,51.9615 230.0,34.641" /><polygon fill="rgb(78,222,213)" points="240.0,51.9615 260.0,51.9615 270.0,69.282 260.0,86.6025 240.0,86.6025 230.0,69.282" /><polygon fill="rgb(88,221,200)" points="240.0,86.6025 260.0,86.6025 270.0,103.923 260.0,121.2436 240.0,121.2436 230.0,103.923" /><polygon fill="rgb(156,188,165)" points="240.0,121.2436 260.0,121.2436 270.0,138.5641 260.0,155.8846 240.0,155.8846 230.0,138.5641" /><polygon fill="rgb(82,217,203)" points="240.0,155.8846 260.0,155.8846 270.0,173.2051 260.0,190.5256 240.0,190.5256 230.0,173.2051" /><polygon fill="rgb(254,153,107)" points="240.0,190.5256 260.0,190.5256 270.0,207.8461 260.0,225.1666 240.0,225.1666 230.0,207.8461" /><polygon fill="rgb(134,88,134)" points="240.0,225.1666 260.0,225.1666 270.0,242.4871 260.0,259.8076 240.0,259.8076 230.0,242.4871" /><polygon fill="rgb(238,99,118)" points="240.0,259.8076 260.0,259.8076 270.0,277.1281 260.0,294.4486 240.0,294.4486 230.0,277.1281" /><polygon fill="rgb(124,85,129)" points="240.0,294.4486 260.0,294.4486 270.0,311.7691 260.0,329.0897 240.0,329.0897 230.0,311.7691" /><polygon fill="rgb(31,102,134)" points="240.0,329.0897 260.0,329.0897 270.0,346.4102 260.0,363.7307 240.0,363.7307 230.0,346.4102" /><polygon fill="rgb(26,103,133)" points="240.0,363.7307 260.0,363.7307 270.0,381.0512 260.0,398.3717 240.0,398.3717 230.0,381.0512" /><polygon fill="rgb(27,102,133)" points="240.0,398.3717 260.0,398.3717 270.0,415.6922 260.0,433.0127 240.0,433.0127 230.0,415.6922" /><polygon fill="rgb(27,104,134)" points="240.0,433.0127 260.0,433.0127 270.0,450.3332 260.0,467.6537 240.0,467.6537 230.0,450.3332" /><polygon fill="rgb(27,104,134)" points="240.0,467.6537 260.0,467.6537 270.0,484.9742 260.0,502.2947 240.0,502.2947 230.0,484.9742" /><polygon fill="rgb(27,102,133)" points="240.0,502.2947 260.0,502.2947 270.0,519.6152 260.0,536.9358 240.0,536.9358 230.0,519.6152" /><polygon fill="rgb(33,204,230)" points="270.0,0.0 290.0,0.0 300.0,17.3205 290.0,34.641 270.0,34.641 260.0,17.3205" /><polygon fill="rgb(164,223,191)" points="270.0,34.641 290.0,34.641 300.0,51.9615 290.0,69.282 270.0,69.282 260.0,51.9615" /><polygon fill="rgb(31,205,230)" points="270.0,69.282 290.0,69.282 300.0,86.6025 290.0,103.923 270.0,103.923 260.0,86.6025" /><polygon fill="rgb(154,194,167)" points="270.0,103.923 290.0,103.923 300.0,121.2436 290.0,138.5641 270.0,138.5641 260.0,121.2436" /><polygon fill="rgb(190,186,139)" points="270.0,138.5641 290.0,138.5641 300.0,155.8846 290.0,173.2051 270.0,173.2051 260.0,155.8846" /><polygon fill="rgb(229,173,136)" points="270.0,173.2051 290.0,173.2051 300.0,190.5256 290.0,207.8461 270.0,207.8461 260.0,190.5256" /><polygon fill="rgb(167,94,124)" points="270.0,207.8461 290.0,207.8461 300.0,225.1666 290.0,242.4871 270.0,242.4871 260.0,225.1666" /><polygon fill="rgb(72,97,117)" points="270.0,242.4871 290.0,242.4871 300.0,259.8076 290.0,277.1281 270.0,277.1281 260.0,259.8076" /><polygon fill="rgb(187,97,123)" points="270.0,277.1281 290.0,277.1281 300.0,294.4486 290.0,311.7691 270.0,311.7691 260.0,294.4486" /><polygon fill="rgb(37,102,130)" points="270.0,311.7691 290.0,311.7691 300.0,329.0897 290.0,346.4102 270.0,346.4102 260.0,329.0897" /><polygon fill="rgb(27,104,134)" points="270.0,346.4102 290.0,346.4102 300.0,363.7307 290.0,381.0512 270.0,381.0512 260.0,363.7307" /><polygon fill="rgb(27,104,134)" points="270.0,381.0512 290.0,381.0512 300.0,398.3717 290.0,415.6922 270.0,415.6922 260.0,398.3717" /><polygon fill="rgb(27,104,134)" points="270.0,415.6922 290.0,415.6922 300.0,433.0127 290.0,450.3332 270.0,450.3332 260.0,433.0127" /><polygon fill="rgb(26,103,133)" points="270.0,450.3332 290.0,450.3332 300.0,467.6537 290.0,484.9742 270.0,484.9742 260.0,467.6537" /><polygon fill="rgb(27,102,133)" points="270.0,484.9742 290.0,484.9742 300.0,502.2947 290.0,519.6152 270.0,519.6152 260.0,502.2947" /><polygon fill="rgb(34,203,232)" points="300.0,-17.3205 320.0,-17.3205 330.0,0.0 320.0,17.3205 300.0,17.3205 290.0,0.0" /><polygon fill="rgb(37,206,225)" points="300.0,17.3205 320.0,17.3205 330.0,34.641 320.0,51.9615 300.0,51.9615 290.0,34.641" /><polygon fill="rgb(251,130,109)" points="300.0,51.9615 320.0,51.9615 330.0,69.282 320.0,86.6025 300.0,86.6025 290.0,69.282" /><polygon fill="rgb(106,220,194)" points="300.0,86.6025 320.0,86.6025 330.0,103.923 320.0,121.2436 300.0,121.2436 290.0,103.923" /><polygon fill="rgb(241,134,118)" points="300.0,121.2436 320.0,121.2436 330.0,138.5641 320.0,155.8846 300.0,155.8846 290.0,138.5641" /><polygon fill="rgb(222,98,122)" points="300.0,155.8846 320.0,155.8846 330.0,173.2051 320.0,190.5256 300.0,190.5256 290.0,173.2051" /><polygon fill="rgb(193,97,125)" points="300.0,190.5256 320.0,190.5256 330.0,207.8461 320.0,225.1666 300.0,225.1666 290.0,207.8461" /><polygon fill="rgb(113,87,134)" points="300.0,225.1666 320.0,225.1666 330.0,242.4871 320.0,259.8076 300.0,259.8076 290.0,242.4871" /><polygon fill="rgb(93,91,138)" points="300.0,259.8076 320.0,259.8076 330.0,277.1281 320.0,294.4486 300.0,294.4486 290.0,277.1281" /><polygon fill="rgb(109,85,135)" points="300.0,294.4486 320.0,294.4486 330.0,311.7691 320.0,329.0897 300.0,329.0897 290.0,311.7691" /><polygon fill="rgb(27,102,133)" points="300.0,329.0897 320.0,329.0897 330.0,346.4102 320.0,363.7307 300.0,363.7307 290.0,346.4102" /><polygon fill="rgb(27,104,134)" points="300.0,363.7307 320.0,363.7307 330.0,381.0512 320.0,398.3717 300.0,398.3717 290.0,381.0512" /><polygon fill="rgb(27,104,134)" points="300.0,398.3717 320.0,398.3717 330.0,415.6922 320.0,433.0127 300.0,433.0127 290.0,415.6922" /><polygon fill="rgb(27,104,134)" points="300.0,433.0127 320.0,433.0127 330.0,450.3332 320.0,467.6537 300.0,467.6537 290.0,450.3332" /><polygon fill="rgb(27,104,134)" points="300.0,467.6537 320.0,467.6537 330.0,484.9742 320.0,502.2947 300.0,502.2947 290.0,484.9742" /><polygon fill="rgb(27,104,134)" points="300.0,502.2947 320.0,502.2947 330.0,519.6152 320.0,536.9358 300.0,536.9358 290.0,519.6152" /><polygon fill="rgb(51,215,214)" points="330.0,0.0 350.0,0.0 360.0,17.3205 350.0,34.641 330.0,34.641 320.0,17.3205" /><polygon fill="rgb(155,184,164)" points="330.0,34.641 350.0,34.641 360.0,51.9615 350.0,69.282 330.0,69.282 320.0,51.9615" /><polygon fill="rgb(252,120,116)" points="330.0,69.282 350.0,69.282 360.0,86.6025 350.0,103.923 330.0,103.923 320.0,86.6025" /><polygon fill="rgb(230,168,119)" points="330.0,103.923 350.0,103.923 360.0,121.2436 350.0,138.5641 330.0,138.5641 320.0,121.2436" /><polygon fill="rgb(250,118,113)" points="330.0,138.5641 350.0,138.5641 360.0,155.8846 350.0,173.2051 330.0,173.2051 320.0,155.8846" /><polygon fill="rgb(165,89,127)" points="330.0,173.2051 350.0,173.2051 360.0,190.5256 350.0,207.8461 330.0,207.8461 320.0,190.5256" /><polygon fill="rgb(78,97,140)" points="330.0,207.8461 350.0,207.8461 360.0,225.1666 350.0,242.4871 330.0,242.4871 320.0,225.1666" /><polygon fill="rgb(80,92,140)" points="330.0,242.4871 350.0,242.4871 360.0,259.8076 350.0,277.1281 330.0,277.1281 320.0,259.8076" /><polygon fill="rgb(26,103,133)" points="330.0,277.1281 350.0,277.1281 360.0,294.4486 350.0,311.7691 330.0,311.7691 320.0,294.4486" /><polygon fill="rgb(32,103,133)" points="330.0,311.7691 350.0,311.7691 360.0,329.0897 350.0,346.4102 330.0,346.4102 320.0,329.0897" /><polygon fill="rgb(27,104,134)" points="330.0,346.4102 350.0,346.4102 360.0,363.7307 350.0,381.0512 330.0,381.0512 320.0,363.7307" /><polygon fill="rgb(27,104,134)" points="330.0,381.0512 350.0,381.0512 360.0,398.3717 350.0,415.6922 330.0,415.6922 320.0,398.3717" /><polygon fill="rgb(27,104,134)" points="330.0,415.6922 350.0,415.6922 360.0,433.0127 350.0,450.3332 330.0,450.3332 320.0,433.0127" /><polygon fill="rgb(27,102,133)" points="330.0,450.3332 350.0,450.3332 360.0,467.6537 350.0,484.9742 330.0,484.9742 320.0,467.6537" /><polygon fill="rgb(28,103,134)" points="330.0,484.9742 350.0,484.9742 360.0,502.2947 350.0,519.6152 330.0,519.6152 320.0,502.2947" /><polygon fill="rgb(247,191,96)" points="360.0,-17.3205 380.0,-17.3205 390.0,0.0 380.0,17.3205 360.0,17.3205 350.0,0.0" /><polygon fill="rgb(92,222,210)" points="360.0,17.3205 380.0,17.3205 390.0,34.641 380.0,51.9615 360.0,51.9615 350.0,34.641" /><polygon fill="rgb(193,177,144)" points="360.0,51.9615 380.0,51.9615 390.0,69.282 380.0,86.6025 360.0,86.6025 350.0,69.282" /><polygon fill="rgb(145,99,125)" points="360.0,86.6025 380.0,86.6025 390.0,103.923 380.0,121.2436 360.0,121.2436 350.0,103.923" /><polygon fill="rgb(229,109,118)" points="360.0,121.2436 380.0,121.2436 390.0,138.5641 380.0,155.8846 360.0,155.8846 350.0,138.5641" /><polygon fill="rgb(253,113,116)" points="360.0,155.8846 380.0,155.8846 390.0,173.2051 380.0,190.5256 360.0,190.5256 350.0,173.2051" /><polygon fill="rgb(49,97,135)" points="360.0,190.5256 380.0,190.5256 390.0,207.8461 380.0,225.1666 360.0,225.1666 350.0,207.8461" /><polygon fill="rgb(131,85,134)" points="360.0,225.1666 380.0,225.1666 390.0,242.4871 380.0,259.8076 360.0,259.8076 350.0,242.4871" /><polygon fill="rgb(25,104,134)" points="360.0,259.8076 380.0,259.8076 390.0,277.1281 380.0,294.4486 360.0,294.4486 350.0,277.1281" /><polygon fill="rgb(27,104,134)" points="360.0,294.4486 380.0,294.4486 390.0,311.7691 380.0,329.0897 360.0,329.0897 350.0,311.7691" /><polygon fill="rgb(27,104,134)" points="360.0,329.0897 380.0,329.0897 390.0,346.4102 380.0,363.7307 360.0,363.7307 350.0,346.4102" /><polygon fill="rgb(27,104,134)" points="360.0,363.7307 380.0,363.7307 390.0,381.0512 380.0,398.3717 360.0,398.3717 350.0,381.0512" /><polygon fill="rgb(27,104,134)" points="360.0,398.3717 380.0,398.3717 390.0,415.6922 380.0,433.0127 360.0,433.0127 350.0,415.6922" /><polygon fill="rgb(27,102,133)" points="360.0,433.0127 380.0,433.0127 390.0,450.3332 380.0,467.6537 360.0,467.6537 350.0,450.3332" /><polygon fill="rgb(27,102,133)" points="360.0,467.6537 380.0,467.6537 390.0,484.9742 380.0,502.2947 360.0,502.2947 350.0,484.9742" /><polygon fill="rgb(27,104,134)" points="360.0,502.2947 380.0,502.2947 390.0,519.6152 380.0,536.9358 360.0,536.9358 350.0,519.6152" /><polygon fill="rgb(245,190,97)" points="390.0,0.0 410.0,0.0 420.0,17.3205 410.0,34.641 390.0,34.641 380.0,17.3205" /><polygon fill="rgb(236,189,107)" points="390.0,34.641 410.0,34.641 420.0,51.9615 410.0,69.282 390.0,69.282 380.0,51.9615" /><polygon fill="rgb(196,132,133)" points="390.0,69.282 410.0,69.282 420.0,86.6025 410.0,103.923 390.0,103.923 380.0,86.6025" /><polygon fill="rgb(254,121,116)" points="390.0,103.923 410.0,103.923 420.0,121.2436 410.0,138.5641 390.0,138.5641 380.0,121.2436" /><polygon fill="rgb(192,103,131)" points="390.0,138.5641 410.0,138.5641 420.0,155.8846 410.0,173.2051 390.0,173.2051 380.0,155.8846" /><polygon fill="rgb(50,96,130)" points="390.0,173.2051 410.0,173.2051 420.0,190.5256 410.0,207.8461 390.0,207.8461 380.0,190.5256" /><polygon fill="rgb(46,102,137)" points="390.0,207.8461 410.0,207.8461 420.0,225.1666 410.0,242.4871 390.0,242.4871 380.0,225.1666" /><polygon fill="rgb(28,104,130)" points="390.0,242.4871 410.0,242.4871 420.0,259.8076 410.0,277.1281 390.0,277.1281 380.0,259.8076" /><polygon fill="rgb(27,104,134)" points="390.0,277.1281 410.0,277.1281 420.0,294.4486 410.0,311.7691 390.0,311.7691 380.0,294.4486" /><polygon fill="rgb(27,102,133)" points="390.0,311.7691 410.0,311.7691 420.0,329.0897 410.0,346.4102 390.0,346.4102 380.0,329.0897" /><polygon fill="rgb(27,104,134)" points="390.0,346.4102 410.0,346.4102 420.0,363.7307 410.0,381.0512 390.0,381.0512 380.0,363.7307" /><polygon fill="rgb(25,104,134)" points="390.0,381.0512 410.0,381.0512 420.0,398.3717 410.0,415.6922 390.0,415.6922 380.0,398.3717" /><polygon fill="rgb(27,104,134)" points="390.0,415.6922 410.0,415.6922 420.0,433.0127 410.0,450.3332 390.0,450.3332 380.0,433.0127" /><polygon fill="rgb(28,101,133)" points="390.0,450.3332 410.0,450.3332 420.0,467.6537 410.0,484.9742 390.0,484.9742 380.0,467.6537" /><polygon fill="rgb(27,102,133)" points="390.0,484.9742 410.0,484.9742 420.0,502.2947 410.0,519.6152 390.0,519.6152 380.0,502.2947" /><polygon fill="rgb(246,189,99)" points="420.0,-17.3205 440.0,-17.3205 450.0,0.0 440.0,17.3205 420.0,17.3205 410.0,0.0" /><polygon fill="rgb(245,190,99)" points="420.0,17.3205 440.0,17.3205 450.0,34.641 440.0,51.9615 420.0,51.9615 410.0,34.641" /><polygon fill="rgb(245,183,100)" points="420.0,51.9615 440.0,51.9615 450.0,69.282 440.0,86.6025 420.0,86.6025 410.0,69.282" /><polygon fill="rgb(125,83,133)" points="420.0,86.6025 440.0,86.6025 450.0,103.923 440.0,121.2436 420.0,121.2436 410.0,103.923" /><polygon fill="rgb(235,102,119)" points="420.0,121.2436 440.0,121.2436 450.0,138.5641 440.0,155.8846 420.0,155.8846 410.0,138.5641" /><polygon fill="rgb(129,82,137)" points="420.0,155.8846 440.0,155.8846 450.0,173.2051 440.0,190.5256 420.0,190.5256 410.0,173.2051" /><polygon fill="rgb(25,105,132)" points="420.0,190.5256 440.0,190.5256 450.0,207.8461 440.0,225.1666 420.0,225.1666 410.0,207.8461" /><polygon fill="rgb(28,103,132)" points="420.0,225.1666 440.0,225.1666 450.0,242.4871 440.0,259.8076 420.0,259.8076 410.0,242.4871" /><polygon fill="rgb(27,104,134)" points="420.0,259.8076 440.0,259.8076 450.0,277.1281 440.0,294.4486 420.0,294.4486 410.0,277.1281" /><polygon fill="rgb(27,104,134)" points="420.0,294.4486 440.0,294.4486 450.0,311.7691 440.0,329.0897 420.0,329.0897 410.0,311.7691" /><polygon fill="rgb(27,102,133)" points="420.0,329.0897 440.0,329.0897 450.0,346.4102 440.0,363.7307 420.0,363.7307 410.0,346.4102" /><polygon fill="rgb(27,104,134)" points="420.0,363.7307 440.0,363.7307 450.0,381.0512 440.0,398.3717 420.0,398.3717 410.0,381.0512" /><polygon fill="rgb(27,104,134)" points="420.0,398.3717 440.0,398.3717 450.0,415.6922 440.0,433.0127 420.0,433.0127 410.0,415.6922" /><polygon fill="rgb(27,104,134)" points="420.0,433.0127 440.0,433.0127 450.0,450.3332 440.0,467.6537 420.0,467.6537 410.0,450.3332" /><polygon fill="rgb(28,103,134)" points="420.0,467.6537 440.0,467.6537 450.0,484.9742 440.0,502.2947 420.0,502.2947 410.0,484.9742" /><polygon fill="rgb(25,104,134)" points="420.0,502.2947 440.0,502.2947 450.0,519.6152 440.0,536.9358 420.0,536.9358 410.0,519.6152" /><polygon fill="rgb(244,191,97)" points="450.0,0.0 470.0,0.0 480.0,17.3205 470.0,34.641 450.0,34.641 440.0,17.3205" /><polygon fill="rgb(237,132,129)" points="450.0,34.641 470.0,34.641 480.0,51.9615 470.0,69.282 450.0,69.282 440.0,51.9615" /><polygon fill="rgb(250,166,104)" points="450.0,69.282 470.0,69.282 480.0,86.6025 470.0,103.923 450.0,103.923 440.0,86.6025" /><polygon fill="rgb(165,101,135)" points="450.0,103.923 470.0,103.923 480.0,121.2436 470.0,138.5641 450.0,138.5641 440.0,121.2436" /><polygon fill="rgb(168,90,129)" points="450.0,138.5641 470.0,138.5641 480.0,155.8846 470.0,173.2051 450.0,173.2051 440.0,155.8846" /><polygon fill="rgb(128,85,138)" points="450.0,173.2051 470.0,173.2051 480.0,190.5256 470.0,207.8461 450.0,207.8461 440.0,190.5256" /><polygon fill="rgb(28,103,132)" points="450.0,207.8461 470.0,207.8461 480.0,225.1666 470.0,242.4871 450.0,242.4871 440.0,225.1666" /><polygon fill="rgb(27,104,134)" points="450.0,242.4871 470.0,242.4871 480.0,259.8076 470.0,277.1281 450.0,277.1281 440.0,259.8076" /><polygon fill="rgb(27,104,134)" points="450.0,277.1281 470.0,277.1281 480.0,294.4486 470.0,311.7691 450.0,311.7691 440.0,294.4486" /><polygon fill="rgb(27,104,134)" points="450.0,311.7691 470.0,311.7691 480.0,329.0897 470.0,346.4102 450.0,346.4102 440.0,329.0897" /><polygon fill="rgb(27,102,133)" points="450.0,346.4102 470.0,346.4102 480.0,363.7307 470.0,381.0512 450.0,381.0512 440.0,363.7307" /><polygon fill="rgb(27,104,134)" points="450.0,381.0512 470.0,381.0512 480.0,398.3717 470.0,415.6922 450.0,415.6922 440.0,398.3717" /><polygon fill="rgb(26,103,133)" points="450.0,415.6922 470.0,415.6922 480.0,433.0127 470.0,450.3332 450.0,450.3332 440.0,433.0127" /><polygon fill="rgb(27,102,133)" points="450.0,450.3332 470.0,450.3332 480.0,467.6537 470.0,484.9742 450.0,484.9742 440.0,467.6537" /><polygon fill="rgb(26,103,133)" points="450.0,484.9742 470.0,484.9742 480.0,502.2947 470.0,519.6152 450.0,519.6152 440.0,502.2947" /><polygon fill="rgb(225,101,125)" points="480.0,-17.3205 500.0,-17.3205 510.0,0.0 500.0,17.3205 480.0,17.3205 470.0,0.0" /><polygon fill="rgb(239,168,104)" points="480.0,17.3205 500.0,17.3205 510.0,34.641 500.0,51.9615 480.0,51.9615 470.0,34.641" /><polygon fill="rgb(143,103,130)" points="480.0,51.9615 500.0,51.9615 510.0,69.282 500.0,86.6025 480.0,86.6025 470.0,69.282" /><polygon fill="rgb(253,131,108)" points="480.0,86.6025 500.0,86.6025 510.0,103.923 500.0,121.2436 480.0,121.2436 470.0,103.923" /><polygon fill="rgb(136,95,135)" points="480.0,121.2436 500.0,121.2436 510.0,138.5641 500.0,155.8846 480.0,155.8846 470.0,138.5641" /><polygon fill="rgb(141,88,132)" points="480.0,155.8846 500.0,155.8846 510.0,173.2051 500.0,190.5256 480.0,190.5256 470.0,173.2051" /><polygon fill="rgb(32,102,128)" points="480.0,190.5256 500.0,190.5256 510.0,207.8461 500.0,225.1666 480.0,225.1666 470.0,207.8461" /><polygon fill="rgb(28,103,134)" points="480.0,225.1666 500.0,225.1666 510.0,242.4871 500.0,259.8076 480.0,259.8076 470.0,242.4871" /><polygon fill="rgb(27,104,134)" points="480.0,259.8076 500.0,259.8076 510.0,277.1281 500.0,294.4486 480.0,294.4486 470.0,277.1281" /><polygon fill="rgb(27,104,134)" points="480.0,294.4486 500.0,294.4486 510.0,311.7691 500.0,329.0897 480.0,329.0897 470.0,311.7691" /><polygon fill="rgb(27,104,134)" points="480.0,329.0897 500.0,329.0897 510.0,346.4102 500.0,363.7307 480.0,363.7307 470.0,346.4102" /><polygon fill="rgb(27,102,133)" points="480.0,363.7307 500.0,363.7307 510.0,381.0512 500.0,398.3717 480.0,398.3717 470.0,381.0512" /><polygon fill="rgb(28,103,134)" points="480.0,398.3717 500.0,398.3717 510.0,415.6922 500.0,433.0127 480.0,433.0127 470.0,415.6922" /><polygon fill="rgb(27,104,134)" points="480.0,433.0127 500.0,433.0127 510.0,450.3332 500.0,467.6537 480.0,467.6537 470.0,450.3332" /><polygon fill="rgb(27,102,133)" points="480.0,467.6537 500.0,467.6537 510.0,484.9742 500.0,502.2947 480.0,502.2947 470.0,484.9742" /><polygon fill="rgb(27,104,134)" points="480.0,502.2947 500.0,502.2947 510.0,519.6152 500.0,536.9358 480.0,536.9358 470.0,519.6152" /><polygon fill="rgb(253,120,111)" points="510.0,0.0 530.0,0.0 540.0,17.3205 530.0,34.641 510.0,34.641 500.0,17.3205" /><polygon fill="rgb(126,86,136)" points="510.0,34.641 530.0,34.641 540.0,51.9615 530.0,69.282 510.0,69.282 500.0,51.9615" /><polygon fill="rgb(129,82,126)" points="510.0,69.282 530.0,69.282 540.0,86.6025 530.0,103.923 510.0,103.923 500.0,86.6025" /><polygon fill="rgb(223,99,125)" points="510.0,103.923 530.0,103.923 540.0,121.2436 530.0,138.5641 510.0,138.5641 500.0,121.2436" /><polygon fill="rgb(145,94,135)" points="510.0,138.5641 530.0,138.5641 540.0,155.8846 530.0,173.2051 510.0,173.2051 500.0,155.8846" /><polygon fill="rgb(102,89,133)" points="510.0,173.2051 530.0,173.2051 540.0,190.5256 530.0,207.8461 510.0,207.8461 500.0,190.5256" /><polygon fill="rgb(36,102,134)" points="510.0,207.8461 530.0,207.8461 540.0,225.1666 530.0,242.4871 510.0,242.4871 500.0,225.1666" /><polygon fill="rgb(29,103,132)" points="510.0,242.4871 530.0,242.4871 540.0,259.8076 530.0,277.1281 510.0,277.1281 500.0,259.8076" /><polygon fill="rgb(27,104,134)" points="510.0,277.1281 530.0,277.1281 540.0,294.4486 530.0,311.7691 510.0,311.7691 500.0,294.4486" /><polygon fill="rgb(27,104,134)" points="510.0,311.7691 530.0,311.7691 540.0,329.0897 530.0,346.4102 510.0,346.4102 500.0,329.0897" /><polygon fill="rgb(27,104,134)" points="510.0,346.4102 530.0,346.4102 540.0,363.7307 530.0,381.0512 510.0,381.0512 500.0,363.7307" /><polygon fill="rgb(24,105,132)" points="510.0,381.0512 530.0,381.0512 540.0,398.3717 530.0,415.6922 510.0,415.6922 500.0,398.3717" /><polygon fill="rgb(27,104,134)" points="510.0,415.6922 530.0,415.6922 540.0,433.0127 530.0,450.3332 510.0,450.3332 500.0,433.0127" /><polygon fill="rgb(27,104,134)" points="510.0,450.3332 530.0,450.3332 540.0,467.6537 530.0,484.9742 510.0,484.9742 500.0,467.6537" /><polygon fill="rgb(27,104,134)" points="510.0,484.9742 530.0,484.9742 540.0,502.2947 530.0,519.6152 510.0,519.6152 500.0,502.2947" /><polygon fill="rgb(255,124,104)" points="540.0,-17.3205 560.0,-17.3205 570.0,0.0 560.0,17.3205 540.0,17.3205 530.0,0.0" /><polygon fill="rgb(246,110,122)" points="540.0,17.3205 560.0,17.3205 570.0,34.641 560.0,51.9615 540.0,51.9615 530.0,34.641" /><polygon fill="rgb(124,87,138)" points="540.0,51.9615 560.0,51.9615 570.0,69.282 560.0,86.6025 540.0,86.6025 530.0,69.282" /><polygon fill="rgb(226,104,129)" points="540.0,86.6025 560.0,86.6025 570.0,103.923 560.0,121.2436 540.0,121.2436 530.0,103.923" /><polygon fill="rgb(166,92,127)" points="540.0,121.2436 560.0,121.2436 570.0,138.5641 560.0,155.8846 540.0,155.8846 530.0,138.5641" /><polygon fill="rgb(112,88,136)" points="540.0,155.8846 560.0,155.8846 570.0,173.2051 560.0,190.5256 540.0,190.5256 530.0,173.2051" /><polygon fill="rgb(85,92,134)" points="540.0,190.5256 560.0,190.5256 570.0,207.8461 560.0,225.1666 540.0,225.1666 530.0,207.8461" /><polygon fill="rgb(28,103,134)" points="540.0,225.1666 560.0,225.1666 570.0,242.4871 560.0,259.8076 540.0,259.8076 530.0,242.4871" /><polygon fill="rgb(27,104,134)" points="540.0,259.8076 560.0,259.8076 570.0,277.1281 560.0,294.4486 540.0,294.4486 530.0,277.1281" /><polygon fill="rgb(27,102,133)" points="540.0,294.4486 560.0,294.4486 570.0,311.7691 560.0,329.0897 540.0,329.0897 530.0,311.7691" /><polygon fill="rgb(27,104,134)" points="540.0,329.0897 560.0,329.0897 570.0,346.4102 560.0,363.7307 540.0,363.7307 530.0,346.4102" /><polygon fill="rgb(27,104,134)" points="540.0,363.7307 560.0,363.7307 570.0,381.0512 560.0,398.3717 540.0,398.3717 530.0,381.0512" /><polygon fill="rgb(27,102,133)" points="540.0,398.3717 560.0,398.3717 570.0,415.6922 560.0,433.0127 540.0,433.0127 530.0,415.6922" /><polygon fill="rgb(27,102,133)" points="540.0,433.0127 560.0,433.0127 570.0,450.3332 560.0,467.6537 540.0,467.6537 530.0,450.3332" /><polygon fill="rgb(27,104,134)" points="540.0,467.6537 560.0,467.6537 570.0,484.9742 560.0,502.2947 540.0,502.2947 530.0,484.9742" /><polygon fill="rgb(27,104,134)" points="540.0,502.2947 560.0,502.2947 570.0,519.6152 560.0,536.9358 540.0,536.9358 530.0,519.6152" /><polygon fill="rgb(184,98,125)" points="570.0,0.0 590.0,0.0 600.0,17.3205 590.0,34.641 570.0,34.641 560.0,17.3205" /><polygon fill="rgb(134,89,130)" points="570.0,34.641 590.0,34.641 600.0,51.9615 590.0,69.282 570.0,69.282 560.0,51.9615" /><polygon fill="rgb(27,102,133)" points="570.0,69.282 590.0,69.282 600.0,86.6025 590.0,103.923 570.0,103.923 560.0,86.6025" /><polygon fill="rgb(144,92,130)" points="570.0,103.923 590.0,103.923 600.0,121.2436 590.0,138.5641 570.0,138.5641 560.0,121.2436" /><polygon fill="rgb(115,86,134)" points="570.0,138.5641 590.0,138.5641 600.0,155.8846 590.0,173.2051 570.0,173.2051 560.0,155.8846" /><polygon fill="rgb(53,97,132)" points="570.0,173.2051 590.0,173.2051 600.0,190.5256 590.0,207.8461 570.0,207.8461 560.0,190.5256" /><polygon fill="rgb(28,103,134)" points="570.0,207.8461 590.0,207.8461 600.0,225.1666 590.0,242.4871 570.0,242.4871 560.0,225.1666" /><polygon fill="rgb(27,104,134)" points="570.0,242.4871 590.0,242.4871 600.0,259.8076 590.0,277.1281 570.0,277.1281 560.0,259.8076" /><polygon fill="rgb(27,104,134)" points="570.0,277.1281 590.0,277.1281 600.0,294.4486 590.0,311.7691 570.0,311.7691 560.0,294.4486" /><polygon fill="rgb(27,102,133)" points="570.0,311.7691 590.0,311.7691 600.0,329.0897 590.0,346.4102 570.0,346.4102 560.0,329.0897" /><polygon fill="rgb(27,104,134)" points="570.0,346.4102 590.0,346.4102 600.0,363.7307 590.0,381.0512 570.0,381.0512 560.0,363.7307" /><polygon fill="rgb(27,104,134)" points="570.0,381.0512 590.0,381.0512 600.0,398.3717 590.0,415.6922 570.0,415.6922 560.0,398.3717" /><polygon fill="rgb(27,102,133)" points="570.0,415.6922 590.0,415.6922 600.0,433.0127 590.0,450.3332 570.0,450.3332 560.0,433.0127" /><polygon fill="rgb(27,104,134)" points="570.0,450.3332 590.0,450.3332 600.0,467.6537 590.0,484.9742 570.0,484.9742 560.0,467.6537" /><polygon fill="rgb(27,104,134)" points="570.0,484.9742 590.0,484.9742 600.0,502.2947 590.0,519.6152 570.0,519.6152 560.0,502.2947" /><polygon fill="rgb(165,101,128)" points="600.0,-17.3205 620.0,-17.3205 630.0,0.0 620.0,17.3205 600.0,17.3205 590.0,0.0" /><polygon fill="rgb(125,86,133)" points="600.0,17.3205 620.0,17.3205 630.0,34.641 620.0,51.9615 600.0,51.9615 590.0,34.641" /><polygon fill="rgb(111,91,128)" points="600.0,51.9615 620.0,51.9615 630.0,69.282 620.0,86.6025 600.0,86.6025 590.0,69.282" /><polygon fill="rgb(35,101,127)" points="600.0,86.6025 620.0,86.6025 630.0,103.923 620.0,121.2436 600.0,121.2436 590.0,103.923" /><polygon fill="rgb(128,88,138)" points="600.0,121.2436 620.0,121.2436 630.0,138.5641 620.0,155.8846 600.0,155.8846 590.0,138.5641" /><polygon fill="rgb(105,88,140)" points="600.0,155.8846 620.0,155.8846 630.0,173.2051 620.0,190.5256 600.0,190.5256 590.0,173.2051" /><polygon fill="rgb(27,104,134)" points="600.0,190.5256 620.0,190.5256 630.0,207.8461 620.0,225.1666 600.0,225.1666 590.0,207.8461" /><polygon fill="rgb(27,102,133)" points="600.0,225.1666 620.0,225.1666 630.0,242.4871 620.0,259.8076 600.0,259.8076 590.0,242.4871" /><polygon fill="rgb(27,104,134)" points="600.0,259.8076 620.0,259.8076 630.0,277.1281 620.0,294.4486 600.0,294.4486 590.0,277.1281" /><polygon fill="rgb(27,104,134)" points="600.0,294.4486 620.0,294.4486 630.0,311.7691 620.0,329.0897 600.0,329.0897 590.0,311.7691" /><polygon fill="rgb(27,102,133)" points="600.0,329.0897 620.0,329.0897 630.0,346.4102 620.0,363.7307 600.0,363.7307 590.0,346.4102" /><polygon fill="rgb(27,102,133)" points="600.0,363.7307 620.0,363.7307 630.0,381.0512 620.0,398.3717 600.0,398.3717 590.0,381.0512" /><polygon fill="rgb(27,102,133)" points="600.0,398.3717 620.0,398.3717 630.0,415.6922 620.0,433.0127 600.0,433.0127 590.0,415.6922" /><polygon fill="rgb(26,103,133)" points="600.0,433.0127 620.0,433.0127 630.0,450.3332 620.0,467.6537 600.0,467.6537 590.0,450.3332" /><polygon fill="rgb(27,104,134)" points="600.0,467.6537 620.0,467.6537 630.0,484.9742 620.0,502.2947 600.0,502.2947 590.0,484.9742" /><polygon fill="rgb(27,104,134)" points="600.0,502.2947 620.0,502.2947 630.0,519.6152 620.0,536.9358 600.0,536.9358 590.0,519.6152" /><polygon fill="rgb(112,89,135)" points="630.0,0.0 650.0,0.0 660.0,17.3205 650.0,34.641 630.0,34.641 620.0,17.3205" /><polygon fill="rgb(37,100,133)" points="630.0,34.641 650.0,34.641 660.0,51.9615 650.0,69.282 630.0,69.282 620.0,51.9615" /><polygon fill="rgb(59,99,135)" points="630.0,69.282 650.0,69.282 660.0,86.6025 650.0,103.923 630.0,103.923 620.0,86.6025" /><polygon fill="rgb(49,97,133)" points="630.0,103.923 650.0,103.923 660.0,121.2436 650.0,138.5641 630.0,138.5641 620.0,121.2436" /><polygon fill="rgb(37,101,129)" points="630.0,138.5641 650.0,138.5641 660.0,155.8846 650.0,173.2051 630.0,173.2051 620.0,155.8846" /><polygon fill="rgb(28,103,134)" points="630.0,173.2051 650.0,173.2051 660.0,190.5256 650.0,207.8461 630.0,207.8461 620.0,190.5256" /><polygon fill="rgb(26,103,133)" points="630.0,207.8461 650.0,207.8461 660.0,225.1666 650.0,242.4871 630.0,242.4871 620.0,225.1666" /><polygon fill="rgb(27,103,135)" points="630.0,242.4871 650.0,242.4871 660.0,259.8076 650.0,277.1281 630.0,277.1281 620.0,259.8076" /><polygon fill="rgb(27,102,133)" points="630.0,277.1281 650.0,277.1281 660.0,294.4486 650.0,311.7691 630.0,311.7691 620.0,294.4486" /><polygon fill="rgb(27,102,133)" points="630.0,311.7691 650.0,311.7691 660.0,329.0897 650.0,346.4102 630.0,346.4102 620.0,329.0897" /><polygon fill="rgb(29,102,134)" points="630.0,346.4102 650.0,346.4102 660.0,363.7307 650.0,381.0512 630.0,381.0512 620.0,363.7307" /><polygon fill="rgb(27,102,133)" points="630.0,381.0512 650.0,381.0512 660.0,398.3717 650.0,415.6922 630.0,415.6922 620.0,398.3717" /><polygon fill="rgb(27,104,134)" points="630.0,415.6922 650.0,415.6922 660.0,433.0127 650.0,450.3332 630.0,450.3332 620.0,433.0127" /><polygon fill="rgb(27,104,134)" points="630.0,450.3332 650.0,450.3332 660.0,467.6537 650.0,484.9742 630.0,484.9742 620.0,467.6537" /><polygon fill="rgb(28,103,132)" points="630.0,484.9742 650.0,484.9742 660.0,502.2947 650.0,519.6152 630.0,519.6152 620.0,502.2947" /><polygon fill="rgb(115,86,134)" points="660.0,-17.3205 680.0,-17.3205 690.0,0.0 680.0,17.3205 660.0,17.3205 650.0,0.0" /><polygon fill="rgb(133,90,136)" points="660.0,17.3205 680.0,17.3205 690.0,34.641 680.0,51.9615 660.0,51.9615 650.0,34.641" /><polygon fill="rgb(141,94,136)" points="660.0,51.9615 680.0,51.9615 690.0,69.282 680.0,86.6025 660.0,86.6025 650.0,69.282" /><polygon fill="rgb(53,95,135)" points="660.0,86.6025 680.0,86.6025 690.0,103.923 680.0,121.2436 660.0,121.2436 650.0,103.923" /><polygon fill="rgb(39,99,133)" points="660.0,121.2436 680.0,121.2436 690.0,138.5641 680.0,155.8846 660.0,155.8846 650.0,138.5641" /><polygon fill="rgb(25,104,134)" points="660.0,155.8846 680.0,155.8846 690.0,173.2051 680.0,190.5256 660.0,190.5256 650.0,173.2051" /><polygon fill="rgb(27,104,134)" points="660.0,190.5256 680.0,190.5256 690.0,207.8461 680.0,225.1666 660.0,225.1666 650.0,207.8461" /><polygon fill="rgb(28,103,134)" points="660.0,225.1666 680.0,225.1666 690.0,242.4871 680.0,259.8076 660.0,259.8076 650.0,242.4871" /><polygon fill="rgb(35,101,133)" points="660.0,259.8076 680.0,259.8076 690.0,277.1281 680.0,294.4486 660.0,294.4486 650.0,277.1281" /><polygon fill="rgb(27,102,133)" points="660.0,294.4486 680.0,294.4486 690.0,311.7691 680.0,329.0897 660.0,329.0897 650.0,311.7691" /><polygon fill="rgb(28,103,134)" points="660.0,329.0897 680.0,329.0897 690.0,346.4102 680.0,363.7307 660.0,363.7307 650.0,346.4102" /><polygon fill="rgb(27,102,133)" points="660.0,363.7307 680.0,363.7307 690.0,381.0512 680.0,398.3717 660.0,398.3717 650.0,381.0512" /><polygon fill="rgb(26,103,133)" points="660.0,398.3717 680.0,398.3717 690.0,415.6922 680.0,433.0127 660.0,433.0127 650.0,415.6922" /><polygon fill="rgb(27,102,133)" points="660.0,433.0127 680.0,433.0127 690.0,450.3332 680.0,467.6537 660.0,467.6537 650.0,450.3332" /><polygon fill="rgb(26,103,133)" points="660.0,467.6537 680.0,467.6537 690.0,484.9742 680.0,502.2947 660.0,502.2947 650.0,484.9742" /><polygon fill="rgb(27,104,134)" points="660.0,502.2947 680.0,502.2947 690.0,519.6152 680.0,536.9358 660.0,536.9358 650.0,519.6152" /><polygon fill="rgb(115,86,134)" points="690.0,0.0 710.0,0.0 720.0,17.3205 710.0,34.641 690.0,34.641 680.0,17.3205" /><polygon fill="rgb(106,89,131)" points="690.0,34.641 710.0,34.641 720.0,51.9615 710.0,69.282 690.0,69.282 680.0,51.9615" /><polygon fill="rgb(38,101,132)" points="690.0,69.282 710.0,69.282 720.0,86.6025 710.0,103.923 690.0,103.923 680.0,86.6025" /><polygon fill="rgb(58,97,136)" points="690.0,103.923 710.0,103.923 720.0,121.2436 710.0,138.5641 690.0,138.5641 680.0,121.2436" /><polygon fill="rgb(28,101,133)" points="690.0,138.5641 710.0,138.5641 720.0,155.8846 710.0,173.2051 690.0,173.2051 680.0,155.8846" /><polygon fill="rgb(29,102,134)" points="690.0,173.2051 710.0,173.2051 720.0,190.5256 710.0,207.8461 690.0,207.8461 680.0,190.5256" /><polygon fill="rgb(25,104,134)" points="690.0,207.8461 710.0,207.8461 720.0,225.1666 710.0,242.4871 690.0,242.4871 680.0,225.1666" /><polygon fill="rgb(27,104,134)" points="690.0,242.4871 710.0,242.4871 720.0,259.8076 710.0,277.1281 690.0,277.1281 680.0,259.8076" /><polygon fill="rgb(27,104,134)" points="690.0,277.1281 710.0,277.1281 720.0,294.4486 710.0,311.7691 690.0,311.7691 680.0,294.4486" /><polygon fill="rgb(27,102,133)" points="690.0,311.7691 710.0,311.7691 720.0,329.0897 710.0,346.4102 690.0,346.4102 680.0,329.0897" /><polygon fill="rgb(27,104,134)" points="690.0,346.4102 710.0,346.4102 720.0,363.7307 710.0,381.0512 690.0,381.0512 680.0,363.7307" /><polygon fill="rgb(24,105,134)" points="690.0,381.0512 710.0,381.0512 720.0,398.3717 710.0,415.6922 690.0,415.6922 680.0,398.3717" /><polygon fill="rgb(27,104,134)" points="690.0,415.6922 710.0,415.6922 720.0,433.0127 710.0,450.3332 690.0,450.3332 680.0,433.0127" /><polygon fill="rgb(27,104,134)" points="690.0,450.3332 710.0,450.3332 720.0,467.6537 710.0,484.9742 690.0,484.9742 680.0,467.6537" /><polygon fill="rgb(27,104,134)" points="690.0,484.9742 710.0,484.9742 720.0,502.2947 710.0,519.6152 690.0,519.6152 680.0,502.2947" /><polygon fill="rgb(115,86,134)" points="720.0,-17.3205 740.0,-17.3205 750.0,0.0 740.0,17.3205 720.0,17.3205 710.0,0.0" /><polygon fill="rgb(107,89,137)" points="720.0,17.3205 740.0,17.3205 750.0,34.641 740.0,51.9615 720.0,51.9615 710.0,34.641" /><polygon fill="rgb(43,96,130)" points="720.0,51.9615 740.0,51.9615 750.0,69.282 740.0,86.6025 720.0,86.6025 710.0,69.282" /><polygon fill="rgb(27,102,131)" points="720.0,86.6025 740.0,86.6025 750.0,103.923 740.0,121.2436 720.0,121.2436 710.0,103.923" /><polygon fill="rgb(27,104,134)" points="720.0,121.2436 740.0,121.2436 750.0,138.5641 740.0,155.8846 720.0,155.8846 710.0,138.5641" /><polygon fill="rgb(27,104,134)" points="720.0,155.8846 740.0,155.8846 750.0,173.2051 740.0,190.5256 720.0,190.5256 710.0,173.2051" /><polygon fill="rgb(26,103,133)" points="720.0,190.5256 740.0,190.5256 750.0,207.8461 740.0,225.1666 720.0,225.1666 710.0,207.8461" /><polygon fill="rgb(27,102,133)" points="720.0,225.1666 740.0,225.1666 750.0,242.4871 740.0,259.8076 720.0,259.8076 710.0,242.4871" /><polygon fill="rgb(27,104,134)" points="720.0,259.8076 740.0,259.8076 750.0,277.1281 740.0,294.4486 720.0,294.4486 710.0,277.1281" /><polygon fill="rgb(27,104,134)" points="720.0,294.4486 740.0,294.4486 750.0,311.7691 740.0,329.0897 720.0,329.0897 710.0,311.7691" /><polygon fill="rgb(27,104,134)" points="720.0,329.0897 740.0,329.0897 750.0,346.4102 740.0,363.7307 720.0,363.7307 710.0,346.4102" /><polygon fill="rgb(31,102,132)" points="720.0,363.7307 740.0,363.7307 750.0,381.0512 740.0,398.3717 720.0,398.3717 710.0,381.0512" /><polygon fill="rgb(27,104,134)" points="720.0,398.3717 740.0,398.3717 750.0,415.6922 740.0,433.0127 720.0,433.0127 710.0,415.6922" /><polygon fill="rgb(27,104,134)" points="720.0,433.0127 740.0,433.0127 750.0,450.3332 740.0,467.6537 720.0,467.6537 710.0,450.3332" /><polygon fill="rgb(27,104,134)" points="720.0,467.6537 740.0,467.6537 750.0,484.9742 740.0,502.2947 720.0,502.2947 710.0,484.9742" /><polygon fill="rgb(27,102,133)" points="720.0,502.2947 740.0,502.2947 750.0,519.6152 740.0,536.9358 720.0,536.9358 710.0,519.6152" /><polygon fill="rgb(121,84,136)" points="750.0,0.0 770.0,0.0 780.0,17.3205 770.0,34.641 750.0,34.641 740.0,17.3205" /><polygon fill="rgb(100,88,134)" points="750.0,34.641 770.0,34.641 780.0,51.9615 770.0,69.282 750.0,69.282 740.0,51.9615" /><polygon fill="rgb(36,101,133)" points="750.0,69.282 770.0,69.282 780.0,86.6025 770.0,103.923 750.0,103.923 740.0,86.6025" /><polygon fill="rgb(27,104,134)" points="750.0,103.923 770.0,103.923 780.0,121.2436 770.0,138.5641 750.0,138.5641 740.0,121.2436" /><polygon fill="rgb(27,104,134)" points="750.0,138.5641 770.0,138.5641 780.0,155.8846 770.0,173.2051 750.0,173.2051 740.0,155.8846" /><polygon fill="rgb(27,104,134)" points="750.0,173.2051 770.0,173.2051 780.0,190.5256 770.0,207.8461 750.0,207.8461 740.0,190.5256" /><polygon fill="rgb(27,104,134)" points="750.0,207.8461 770.0,207.8461 780.0,225.1666 770.0,242.4871 750.0,242.4871 740.0,225.1666" /><polygon fill="rgb(27,102,133)" points="750.0,242.4871 770.0,242.4871 780.0,259.8076 770.0,277.1281 750.0,277.1281 740.0,259.8076" /><polygon fill="rgb(27,104,134)" points="750.0,277.1281 770.0,277.1281 780.0,294.4486 770.0,311.7691 750.0,311.7691 740.0,294.4486" /><polygon fill="rgb(27,104,134)" points="750.0,311.7691 770.0,311.7691 780.0,329.0897 770.0,346.4102 750.0,346.4102 740.0,329.0897" /><polygon fill="rgb(27,104,134)" points="750.0,346.4102 770.0,346.4102 780.0,363.7307 770.0,381.0512 750.0,381.0512 740.0,363.7307" /><polygon fill="rgb(27,104,134)" points="750.0,381.0512 770.0,381.0512 780.0,398.3717 770.0,415.6922 750.0,415.6922 740.0,398.3717" /><polygon fill="rgb(27,104,134)" points="750.0,415.6922 770.0,415.6922 780.0,433.0127 770.0,450.3332 750.0,450.3332 740.0,433.0127" /><polygon fill="rgb(27,104,134)" points="750.0,450.3332 770.0,450.3332 780.0,467.6537 770.0,484.9742 750.0,484.9742 740.0,467.6537" /><polygon fill="rgb(27,104,134)" points="750.0,484.9742 770.0,484.9742 780.0,502.2947 770.0,519.6152 750.0,519.6152 740.0,502.2947" /><polygon fill="rgb(87,91,136)" points="780.0,-17.3205 800.0,-17.3205 810.0,0.0 800.0,17.3205 780.0,17.3205 770.0,0.0" /><polygon fill="rgb(59,97,136)" points="780.0,17.3205 800.0,17.3205 810.0,34.641 800.0,51.9615 780.0,51.9615 770.0,34.641" /><polygon fill="rgb(28,103,132)" points="780.0,51.9615 800.0,51.9615 810.0,69.282 800.0,86.6025 780.0,86.6025 770.0,69.282" /><polygon fill="rgb(24,104,131)" points="780.0,86.6025 800.0,86.6025 810.0,103.923 800.0,121.2436 780.0,121.2436 770.0,103.923" /><polygon fill="rgb(27,104,134)" points="780.0,121.2436 800.0,121.2436 810.0,138.5641 800.0,155.8846 780.0,155.8846 770.0,138.5641" /><polygon fill="rgb(27,104,134)" points="780.0,155.8846 800.0,155.8846 810.0,173.2051 800.0,190.5256 780.0,190.5256 770.0,173.2051" /><polygon fill="rgb(27,104,134)" points="780.0,190.5256 800.0,190.5256 810.0,207.8461 800.0,225.1666 780.0,225.1666 770.0,207.8461" /><polygon fill="rgb(27,102,133)" points="780.0,225.1666 800.0,225.1666 810.0,242.4871 800.0,259.8076 780.0,259.8076 770.0,242.4871" /><polygon fill="rgb(27,104,134)" points="780.0,259.8076 800.0,259.8076 810.0,277.1281 800.0,294.4486 780.0,294.4486 770.0,277.1281" /><polygon fill="rgb(31,102,132)" points="780.0,294.4486 800.0,294.4486 810.0,311.7691 800.0,329.0897 780.0,329.0897 770.0,311.7691" /><polygon fill="rgb(27,104,134)" points="780.0,329.0897 800.0,329.0897 810.0,346.4102 800.0,363.7307 780.0,363.7307 770.0,346.4102" /><polygon fill="rgb(27,104,134)" points="780.0,363.7307 800.0,363.7307 810.0,381.0512 800.0,398.3717 780.0,398.3717 770.0,381.0512" /><polygon fill="rgb(27,102,133)" points="780.0,398.3717 800.0,398.3717 810.0,415.6922 800.0,433.0127 780.0,433.0127 770.0,415.6922" /><polygon fill="rgb(28,103,134)" points="780.0,433.0127 800.0,433.0127 810.0,450.3332 800.0,467.6537 780.0,467.6537 770.0,450.3332" /><polygon fill="rgb(27,104,134)" points="780.0,467.6537 800.0,467.6537 810.0,484.9742 800.0,502.2947 780.0,502.2947 770.0,484.9742" /><polygon fill="rgb(27,104,134)" points="780.0,502.2947 800.0,502.2947 810.0,519.6152 800.0,536.9358 780.0,536.9358 770.0,519.6152" /><polygon fill="rgb(27,102,133)" points="810.0,0.0 830.0,0.0 840.0,17.3205 830.0,34.641 810.0,34.641 800.0,17.3205" /><polygon fill="rgb(27,102,133)" points="810.0,34.641 830.0,34.641 840.0,51.9615 830.0,69.282 810.0,69.282 800.0,51.9615" /><polygon fill="rgb(27,104,134)" points="810.0,69.282 830.0,69.282 840.0,86.6025 830.0,103.923 810.0,103.923 800.0,86.6025" /><polygon fill="rgb(27,102,133)" points="810.0,103.923 830.0,103.923 840.0,121.2436 830.0,138.5641 810.0,138.5641 800.0,121.2436" /><polygon fill="rgb(27,104,134)" points="810.0,138.5641 830.0,138.5641 840.0,155.8846 830.0,173.2051 810.0,173.2051 800.0,155.8846" /><polygon fill="rgb(27,102,133)" points="810.0,173.2051 830.0,173.2051 840.0,190.5256 830.0,207.8461 810.0,207.8461 800.0,190.5256" /><polygon fill="rgb(27,104,134)" points="810.0,207.8461 830.0,207.8461 840.0,225.1666 830.0,242.4871 810.0,242.4871 800.0,225.1666" /><polygon fill="rgb(27,104,134)" points="810.0,242.4871 830.0,242.4871 840.0,259.8076 830.0,277.1281 810.0,277.1281 800.0,259.8076" /><polygon fill="rgb(27,104,134)" points="810.0,277.1281 830.0,277.1281 840.0,294.4486 830.0,311.7691 810.0,311.7691 800.0,294.4486" /><polygon fill="rgb(27,104,134)" points="810.0,311.7691 830.0,311.7691 840.0,329.0897 830.0,346.4102 810.0,346.4102 800.0,329.0897" /><polygon fill="rgb(27,104,134)" points="810.0,346.4102 830.0,346.4102 840.0,363.7307 830.0,381.0512 810.0,381.0512 800.0,363.7307" /><polygon fill="rgb(27,104,134)" points="810.0,381.0512 830.0,381.0512 840.0,398.3717 830.0,415.6922 810.0,415.6922 800.0,398.3717" /><polygon fill="rgb(27,102,133)" points="810.0,415.6922 830.0,415.6922 840.0,433.0127 830.0,450.3332 810.0,450.3332 800.0,433.0127" /><polygon fill="rgb(27,104,134)" points="810.0,450.3332 830.0,450.3332 840.0,467.6537 830.0,484.9742 810.0,484.9742 800.0,467.6537" /><polygon fill="rgb(27,102,133)" points="810.0,484.9742 830.0,484.9742 840.0,502.2947 830.0,519.6152 810.0,519.6152 800.0,502.2947" /><polygon fill="rgb(25,104,134)" points="840.0,-17.3205 860.0,-17.3205 870.0,0.0 860.0,17.3205 840.0,17.3205 830.0,0.0" /><polygon fill="rgb(27,102,133)" points="840.0,17.3205 860.0,17.3205 870.0,34.641 860.0,51.9615 840.0,51.9615 830.0,34.641" /><polygon fill="rgb(27,104,134)" points="840.0,51.9615 860.0,51.9615 870.0,69.282 860.0,86.6025 840.0,86.6025 830.0,69.282" /><polygon fill="rgb(24,103,133)" points="840.0,86.6025 860.0,86.6025 870.0,103.923 860.0,121.2436 840.0,121.2436 830.0,103.923" /><polygon fill="rgb(27,104,134)" points="840.0,121.2436 860.0,121.2436 870.0,138.5641 860.0,155.8846 840.0,155.8846 830.0,138.5641" /><polygon fill="rgb(27,102,133)" points="840.0,155.8846 860.0,155.8846 870.0,173.2051 860.0,190.5256 840.0,190.5256 830.0,173.2051" /><polygon fill="rgb(29,102,134)" points="840.0,190.5256 860.0,190.5256 870.0,207.8461 860.0,225.1666 840.0,225.1666 830.0,207.8461" /><polygon fill="rgb(27,102,133)" points="840.0,225.1666 860.0,225.1666 870.0,242.4871 860.0,259.8076 840.0,259.8076 830.0,242.4871" /><polygon fill="rgb(27,104,134)" points="840.0,259.8076 860.0,259.8076 870.0,277.1281 860.0,294.4486 840.0,294.4486 830.0,277.1281" /><polygon fill="rgb(27,104,134)" points="840.0,294.4486 860.0,294.4486 870.0,311.7691 860.0,329.0897 840.0,329.0897 830.0,311.7691" /><polygon fill="rgb(27,104,134)" points="840.0,329.0897 860.0,329.0897 870.0,346.4102 860.0,363.7307 840.0,363.7307 830.0,346.4102" /><polygon fill="rgb(26,103,133)" points="840.0,363.7307 860.0,363.7307 870.0,381.0512 860.0,398.3717 840.0,398.3717 830.0,381.0512" /><polygon fill="rgb(27,102,133)" points="840.0,398.3717 860.0,398.3717 870.0,415.6922 860.0,433.0127 840.0,433.0127 830.0,415.6922" /><polygon fill="rgb(27,102,133)" points="840.0,433.0127 860.0,433.0127 870.0,450.3332 860.0,467.6537 840.0,467.6537 830.0,450.3332" /><polygon fill="rgb(28,103,134)" points="840.0,467.6537 860.0,467.6537 870.0,484.9742 860.0,502.2947 840.0,502.2947 830.0,484.9742" /><polygon fill="rgb(27,104,134)" points="840.0,502.2947 860.0,502.2947 870.0,519.6152 860.0,536.9358 840.0,536.9358 830.0,519.6152" /><polygon fill="rgb(27,104,134)" points="870.0,0.0 890.0,0.0 900.0,17.3205 890.0,34.641 870.0,34.641 860.0,17.3205" /><polygon fill="rgb(27,104,134)" points="870.0,34.641 890.0,34.641 900.0,51.9615 890.0,69.282 870.0,69.282 860.0,51.9615" /><polygon fill="rgb(27,104,134)" points="870.0,69.282 890.0,69.282 900.0,86.6025 890.0,103.923 870.0,103.923 860.0,86.6025" /><polygon fill="rgb(27,104,134)" points="870.0,103.923 890.0,103.923 900.0,121.2436 890.0,138.5641 870.0,138.5641 860.0,121.2436" /><polygon fill="rgb(27,102,133)" points="870.0,138.5641 890.0,138.5641 900.0,155.8846 890.0,173.2051 870.0,173.2051 860.0,155.8846" /><polygon fill="rgb(27,104,134)" points="870.0,173.2051 890.0,173.2051 900.0,190.5256 890.0,207.8461 870.0,207.8461 860.0,190.5256" /><polygon fill="rgb(25,104,134)" points="870.0,207.8461 890.0,207.8461 900.0,225.1666 890.0,242.4871 870.0,242.4871 860.0,225.1666" /><polygon fill="rgb(27,102,133)" points="870.0,242.4871 890.0,242.4871 900.0,259.8076 890.0,277.1281 870.0,277.1281 860.0,259.8076" /><polygon fill="rgb(27,102,133)" points="870.0,277.1281 890.0,277.1281 900.0,294.4486 890.0,311.7691 870.0,311.7691 860.0,294.4486" /><polygon fill="rgb(27,102,133)" points="870.0,311.7691 890.0,311.7691 900.0,329.0897 890.0,346.4102 870.0,346.4102 860.0,329.0897" /><polygon fill="rgb(27,103,129)" points="870.0,346.4102 890.0,346.4102 900.0,363.7307 890.0,381.0512 870.0,381.0512 860.0,363.7307" /><polygon fill="rgb(27,102,133)" points="870.0,381.0512 890.0,381.0512 900.0,398.3717 890.0,415.6922 870.0,415.6922 860.0,398.3717" /><polygon fill="rgb(28,101,133)" points="870.0,415.6922 890.0,415.6922 900.0,433.0127 890.0,450.3332 870.0,450.3332 860.0,433.0127" /><polygon fill="rgb(27,104,134)" points="870.0,450.3332 890.0,450.3332 900.0,467.6537 890.0,484.9742 870.0,484.9742 860.0,467.6537" /><polygon fill="rgb(27,102,133)" points="870.0,484.9742 890.0,484.9742 900.0,502.2947 890.0,519.6152 870.0,519.6152 860.0,502.2947" /><polygon fill="rgb(28,103,132)" points="900.0,-17.3205 920.0,-17.3205 930.0,0.0 920.0,17.3205 900.0,17.3205 890.0,0.0" /><polygon fill="rgb(26,103,133)" points="900.0,17.3205 920.0,17.3205 930.0,34.641 920.0,51.9615 900.0,51.9615 890.0,34.641" /><polygon fill="rgb(27,104,134)" points="900.0,51.9615 920.0,51.9615 930.0,69.282 920.0,86.6025 900.0,86.6025 890.0,69.282" /><polygon fill="rgb(27,104,134)" points="900.0,86.6025 920.0,86.6025 930.0,103.923 920.0,121.2436 900.0,121.2436 890.0,103.923" /><polygon fill="rgb(27,104,134)" points="900.0,121.2436 920.0,121.2436 930.0,138.5641 920.0,155.8846 900.0,155.8846 890.0,138.5641" /><polygon fill="rgb(28,103,134)" points="900.0,155.8846 920.0,155.8846 930.0,173.2051 920.0,190.5256 900.0,190.5256 890.0,173.2051" /><polygon fill="rgb(27,104,134)" points="900.0,190.5256 920.0,190.5256 930.0,207.8461 920.0,225.1666 900.0,225.1666 890.0,207.8461" /><polygon fill="rgb(27,102,133)" points="900.0,225.1666 920.0,225.1666 930.0,242.4871 920.0,259.8076 900.0,259.8076 890.0,242.4871" /><polygon fill="rgb(27,104,134)" points="900.0,259.8076 920.0,259.8076 930.0,277.1281 920.0,294.4486 900.0,294.4486 890.0,277.1281" /><polygon fill="rgb(27,104,134)" points="900.0,294.4486 920.0,294.4486 930.0,311.7691 920.0,329.0897 900.0,329.0897 890.0,311.7691" /><polygon fill="rgb(27,102,133)" points="900.0,329.0897 920.0,329.0897 930.0,346.4102 920.0,363.7307 900.0,363.7307 890.0,346.4102" /><polygon fill="rgb(24,105,134)" points="900.0,363.7307 920.0,363.7307 930.0,381.0512 920.0,398.3717 900.0,398.3717 890.0,381.0512" /><polygon fill="rgb(27,102,133)" points="900.0,398.3717 920.0,398.3717 930.0,415.6922 920.0,433.0127 900.0,433.0127 890.0,415.6922" /><polygon fill="rgb(27,104,134)" points="900.0,433.0127 920.0,433.0127 930.0,450.3332 920.0,467.6537 900.0,467.6537 890.0,450.3332" /><polygon fill="rgb(27,102,133)" points="900.0,467.6537 920.0,467.6537 930.0,484.9742 920.0,502.2947 900.0,502.2947 890.0,484.9742" /><polygon fill="rgb(27,102,133)" points="900.0,502.2947 920.0,502.2947 930.0,519.6152 920.0,536.9358 900.0,536.9358 890.0,519.6152" /><polygon fill="rgb(27,104,134)" points="930.0,0.0 950.0,0.0 960.0,17.3205 950.0,34.641 930.0,34.641 920.0,17.3205" /><polygon fill="rgb(27,102,133)" points="930.0,34.641 950.0,34.641 960.0,51.9615 950.0,69.282 930.0,69.282 920.0,51.9615" /><polygon fill="rgb(27,104,134)" points="930.0,69.282 950.0,69.282 960.0,86.6025 950.0,103.923 930.0,103.923 920.0,86.6025" /><polygon fill="rgb(27,104,134)" points="930.0,103.923 950.0,103.923 960.0,121.2436 950.0,138.5641 930.0,138.5641 920.0,121.2436" /><polygon fill="rgb(27,102,133)" points="930.0,138.5641 950.0,138.5641 960.0,155.8846 950.0,173.2051 930.0,173.2051 920.0,155.8846" /><polygon fill="rgb(27,104,134)" points="930.0,173.2051 950.0,173.2051 960.0,190.5256 950.0,207.8461 930.0,207.8461 920.0,190.5256" /><polygon fill="rgb(27,102,133)" points="930.0,207.8461 950.0,207.8461 960.0,225.1666 950.0,242.4871 930.0,242.4871 920.0,225.1666" /><polygon fill="rgb(28,103,134)" points="930.0,242.4871 950.0,242.4871 960.0,259.8076 950.0,277.1281 930.0,277.1281 920.0,259.8076" /><polygon fill="rgb(27,102,133)" points="930.0,277.1281 950.0,277.1281 960.0,294.4486 950.0,311.7691 930.0,311.7691 920.0,294.4486" /><polygon fill="rgb(27,102,133)" points="930.0,311.7691 950.0,311.7691 960.0,329.0897 950.0,346.4102 930.0,346.4102 920.0,329.0897" /><polygon fill="rgb(27,102,133)" points="930.0,346.4102 950.0,346.4102 960.0,363.7307 950.0,381.0512 930.0,381.0512 920.0,363.7307" /><polygon fill="rgb(26,103,133)" points="930.0,381.0512 950.0,381.0512 960.0,398.3717 950.0,415.6922 930.0,415.6922 920.0,398.3717" /><polygon fill="rgb(27,102,133)" points="930.0,415.6922 950.0,415.6922 960.0,433.0127 950.0,450.3332 930.0,450.3332 920.0,433.0127" /><polygon fill="rgb(27,102,133)" points="930.0,450.3332 950.0,450.3332 960.0,467.6537 950.0,484.9742 930.0,484.9742 920.0,467.6537" /><polygon fill="rgb(27,102,133)" points="930.0,484.9742 950.0,484.9742 960.0,502.2947 950.0,519.6152 930.0,519.6152 920.0,502.2947" /><polygon fill="rgb(28,103,132)" points="960.0,-17.3205 980.0,-17.3205 990.0,0.0 980.0,17.3205 960.0,17.3205 950.0,0.0" /><polygon fill="rgb(26,103,133)" points="960.0,17.3205 980.0,17.3205 990.0,34.641 980.0,51.9615 960.0,51.9615 950.0,34.641" /><polygon fill="rgb(27,104,134)" points="960.0,51.9615 980.0,51.9615 990.0,69.282 980.0,86.6025 960.0,86.6025 950.0,69.282" /><polygon fill="rgb(27,104,134)" points="960.0,86.6025 980.0,86.6025 990.0,103.923 980.0,121.2436 960.0,121.2436 950.0,103.923" /><polygon fill="rgb(27,104,134)" points="960.0,121.2436 980.0,121.2436 990.0,138.5641 980.0,155.8846 960.0,155.8846 950.0,138.5641" /><polygon fill="rgb(28,103,134)" points="960.0,155.8846 980.0,155.8846 990.0,173.2051 980.0,190.5256 960.0,190.5256 950.0,173.2051" /><polygon fill="rgb(27,104,134)" points="960.0,190.5256 980.0,190.5256 990.0,207.8461 980.0,225.1666 960.0,225.1666 950.0,207.8461" /><polygon fill="rgb(27,102,133)" points="960.0,225.1666 980.0,225.1666 990.0,242.4871 980.0,259.8076 960.0,259.8076 950.0,242.4871" /><polygon fill="rgb(27,104,134)" points="960.0,259.8076 980.0,259.8076 990.0,277.1281 980.0,294.4486 960.0,294.4486 950.0,277.1281" /><polygon fill="rgb(27,104,134)" points="960.0,294.4486 980.0,294.4486 990.0,311.7691 980.0,329.0897 960.0,329.0897 950.0,311.7691" /><polygon fill="rgb(27,102,133)" points="960.0,329.0897 980.0,329.0897 990.0,346.4102 980.0,363.7307 960.0,363.7307 950.0,346.4102" /><polygon fill="rgb(24,105,134)" points="960.0,363.7307 980.0,363.7307 990.0,381.0512 980.0,398.3717 960.0,398.3717 950.0,381.0512" /><polygon fill="rgb(27,102,133)" points="960.0,398.3717 980.0,398.3717 990.0,415.6922 980.0,433.0127 960.0,433.0127 950.0,415.6922" /><polygon fill="rgb(27,104,134)" points="960.0,433.0127 980.0,433.0127 990.0,450.3332 980.0,467.6537 960.0,467.6537 950.0,450.3332" /><polygon fill="rgb(27,102,133)" points="960.0,467.6537 980.0,467.6537 990.0,484.9742 980.0,502.2947 960.0,502.2947 950.0,484.9742" /><polygon fill="rgb(27,102,133)" points="960.0,502.2947 980.0,502.2947 990.0,519.6152 980.0,536.9358 960.0,536.9358 950.0,519.6152" /><polygon fill="rgb(27,104,134)" points="990.0,0.0 1010.0,0.0 1020.0,17.3205 1010.0,34.641 990.0,34.641 980.0,17.3205" /><polygon fill="rgb(27,102,133)" points="990.0,34.641 1010.0,34.641 1020.0,51.9615 1010.0,69.282 990.0,69.282 980.0,51.9615" /><polygon fill="rgb(27,104,134)" points="990.0,69.282 1010.0,69.282 1020.0,86.6025 1010.0,103.923 990.0,103.923 980.0,86.6025" /><polygon fill="rgb(27,104,134)" points="990.0,103.923 1010.0,103.923 1020.0,121.2436 1010.0,138.5641 990.0,138.5641 980.0,121.2436" /><polygon fill="rgb(27,102,133)" points="990.0,138.5641 1010.0,138.5641 1020.0,155.8846 1010.0,173.2051 990.0,173.2051 980.0,155.8846" /><polygon fill="rgb(27,104,134)" points="990.0,173.2051 1010.0,173.2051 1020.0,190.5256 1010.0,207.8461 990.0,207.8461 980.0,190.5256" /><polygon fill="rgb(27,102,133)" points="990.0,207.8461 1010.0,207.8461 1020.0,225.1666 1010.0,242.4871 990.0,242.4871 980.0,225.1666" /><polygon fill="rgb(28,103,134)" points="990.0,242.4871 1010.0,242.4871 1020.0,259.8076 1010.0,277.1281 990.0,277.1281 980.0,259.8076" /><polygon fill="rgb(27,102,133)" points="990.0,277.1281 1010.0,277.1281 1020.0,294.4486 1010.0,311.7691 990.0,311.7691 980.0,294.4486" /><polygon fill="rgb(27,102,133)" points="990.0,311.7691 1010.0,311.7691 1020.0,329.0897 1010.0,346.4102 990.0,346.4102 980.0,329.0897" /><polygon fill="rgb(27,102,133)" points="990.0,346.4102 1010.0,346.4102 1020.0,363.7307 1010.0,381.0512 990.0,381.0512 980.0,363.7307" /><polygon fill="rgb(26,103,133)" points="990.0,381.0512 1010.0,381.0512 1020.0,398.3717 1010.0,415.6922 990.0,415.6922 980.0,398.3717" /><polygon fill="rgb(27,102,133)" points="990.0,415.6922 1010.0,415.6922 1020.0,433.0127 1010.0,450.3332 990.0,450.3332 980.0,433.0127" /><polygon fill="rgb(27,102,133)" points="990.0,450.3332 1010.0,450.3332 1020.0,467.6537 1010.0,484.9742 990.0,484.9742 980.0,467.6537" /><polygon fill="rgb(27,102,133)" points="990.0,484.9742 1010.0,484.9742 1020.0,502.2947 1010.0,519.6152 990.0,519.6152 980.0,502.2947" /><polygon fill="rgb(28,103,132)" points="1020.0,-17.3205 1040.0,-17.3205 1050.0,0.0 1040.0,17.3205 1020.0,17.3205 1010.0,0.0" /><polygon fill="rgb(26,103,133)" points="1020.0,17.3205 1040.0,17.3205 1050.0,34.641 1040.0,51.9615 1020.0,51.9615 1010.0,34.641" /><polygon fill="rgb(27,104,134)" points="1020.0,51.9615 1040.0,51.9615 1050.0,69.282 1040.0,86.6025 1020.0,86.6025 1010.0,69.282" /><polygon fill="rgb(27,104,134)" points="1020.0,86.6025 1040.0,86.6025 1050.0,103.923 1040.0,121.2436 1020.0,121.2436 1010.0,103.923" /><polygon fill="rgb(27,104,134)" points="1020.0,121.2436 1040.0,121.2436 1050.0,138.5641 1040.0,155.8846 1020.0,155.8846 1010.0,138.5641" /><polygon fill="rgb(28,103,134)" points="1020.0,155.8846 1040.0,155.8846 1050.0,173.2051 1040.0,190.5256 1020.0,190.5256 1010.0,173.2051" /><polygon fill="rgb(27,104,134)" points="1020.0,190.5256 1040.0,190.5256 1050.0,207.8461 1040.0,225.1666 1020.0,225.1666 1010.0,207.8461" /><polygon fill="rgb(27,102,133)" points="1020.0,225.1666 1040.0,225.1666 1050.0,242.4871 1040.0,259.8076 1020.0,259.8076 1010.0,242.4871" /><polygon fill="rgb(27,104,134)" points="1020.0,259.8076 1040.0,259.8076 1050.0,277.1281 1040.0,294.4486 1020.0,294.4486 1010.0,277.1281" /><polygon fill="rgb(27,104,134)" points="1020.0,294.4486 1040.0,294.4486 1050.0,311.7691 1040.0,329.0897 1020.0,329.0897 1010.0,311.7691" /><polygon fill="rgb(27,102,133)" points="1020.0,329.0897 1040.0,329.0897 1050.0,346.4102 1040.0,363.7307 1020.0,363.7307 1010.0,346.4102" /><polygon fill="rgb(24,105,134)" points="1020.0,363.7307 1040.0,363.7307 1050.0,381.0512 1040.0,398.3717 1020.0,398.3717 1010.0,381.0512" /><polygon fill="rgb(27,102,133)" points="1020.0,398.3717 1040.0,398.3717 1050.0,415.6922 1040.0,433.0127 1020.0,433.0127 1010.0,415.6922" /><polygon fill="rgb(27,104,134)" points="1020.0,433.0127 1040.0,433.0127 1050.0,450.3332 1040.0,467.6537 1020.0,467.6537 1010.0,450.3332" /><polygon fill="rgb(27,102,133)" points="1020.0,467.6537 1040.0,467.6537 1050.0,484.9742 1040.0,502.2947 1020.0,502.2947 1010.0,484.9742" /><polygon fill="rgb(27,102,133)" points="1020.0,502.2947 1040.0,502.2947 1050.0,519.6152 1040.0,536.9358 1020.0,536.9358 1010.0,519.6152" /><polygon fill="rgb(27,104,134)" points="1050.0,0.0 1070.0,0.0 1080.0,17.3205 1070.0,34.641 1050.0,34.641 1040.0,17.3205" /><polygon fill="rgb(27,102,133)" points="1050.0,34.641 1070.0,34.641 1080.0,51.9615 1070.0,69.282 1050.0,69.282 1040.0,51.9615" /><polygon fill="rgb(27,104,134)" points="1050.0,69.282 1070.0,69.282 1080.0,86.6025 1070.0,103.923 1050.0,103.923 1040.0,86.6025" /><polygon fill="rgb(27,104,134)" points="1050.0,103.923 1070.0,103.923 1080.0,121.2436 1070.0,138.5641 1050.0,138.5641 1040.0,121.2436" /><polygon fill="rgb(27,102,133)" points="1050.0,138.5641 1070.0,138.5641 1080.0,155.8846 1070.0,173.2051 1050.0,173.2051 1040.0,155.8846" /><polygon fill="rgb(27,104,134)" points="1050.0,173.2051 1070.0,173.2051 1080.0,190.5256 1070.0,207.8461 1050.0,207.8461 1040.0,190.5256" /><polygon fill="rgb(27,102,133)" points="1050.0,207.8461 1070.0,207.8461 1080.0,225.1666 1070.0,242.4871 1050.0,242.4871 1040.0,225.1666" /><polygon fill="rgb(28,103,134)" points="1050.0,242.4871 1070.0,242.4871 1080.0,259.8076 1070.0,277.1281 1050.0,277.1281 1040.0,259.8076" /><polygon fill="rgb(27,102,133)" points="1050.0,277.1281 1070.0,277.1281 1080.0,294.4486 1070.0,311.7691 1050.0,311.7691 1040.0,294.4486" /><polygon fill="rgb(27,102,133)" points="1050.0,311.7691 1070.0,311.7691 1080.0,329.0897 1070.0,346.4102 1050.0,346.4102 1040.0,329.0897" /><polygon fill="rgb(27,102,133)" points="1050.0,346.4102 1070.0,346.4102 1080.0,363.7307 1070.0,381.0512 1050.0,381.0512 1040.0,363.7307" /><polygon fill="rgb(26,103,133)" points="1050.0,381.0512 1070.0,381.0512 1080.0,398.3717 1070.0,415.6922 1050.0,415.6922 1040.0,398.3717" /><polygon fill="rgb(27,102,133)" points="1050.0,415.6922 1070.0,415.6922 1080.0,433.0127 1070.0,450.3332 1050.0,450.3332 1040.0,433.0127" /><polygon fill="rgb(27,102,133)" points="1050.0,450.3332 1070.0,450.3332 1080.0,467.6537 1070.0,484.9742 1050.0,484.9742 1040.0,467.6537" /><polygon fill="rgb(27,102,133)" points="1050.0,484.9742 1070.0,484.9742 1080.0,502.2947 1070.0,519.6152 1050.0,519.6152 1040.0,502.2947" /><polygon fill="rgb(28,103,132)" points="1080.0,-17.3205 1100.0,-17.3205 1110.0,0.0 1100.0,17.3205 1080.0,17.3205 1070.0,0.0" /><polygon fill="rgb(26,103,133)" points="1080.0,17.3205 1100.0,17.3205 1110.0,34.641 1100.0,51.9615 1080.0,51.9615 1070.0,34.641" /><polygon fill="rgb(27,104,134)" points="1080.0,51.9615 1100.0,51.9615 1110.0,69.282 1100.0,86.6025 1080.0,86.6025 1070.0,69.282" /><polygon fill="rgb(27,104,134)" points="1080.0,86.6025 1100.0,86.6025 1110.0,103.923 1100.0,121.2436 1080.0,121.2436 1070.0,103.923" /><polygon fill="rgb(27,104,134)" points="1080.0,121.2436 1100.0,121.2436 1110.0,138.5641 1100.0,155.8846 1080.0,155.8846 1070.0,138.5641" /><polygon fill="rgb(28,103,134)" points="1080.0,155.8846 1100.0,155.8846 1110.0,173.2051 1100.0,190.5256 1080.0,190.5256 1070.0,173.2051" /><polygon fill="rgb(27,104,134)" points="1080.0,190.5256 1100.0,190.5256 1110.0,207.8461 1100.0,225.1666 1080.0,225.1666 1070.0,207.8461" /><polygon fill="rgb(27,102,133)" points="1080.0,225.1666 1100.0,225.1666 1110.0,242.4871 1100.0,259.8076 1080.0,259.8076 1070.0,242.4871" /><polygon fill="rgb(27,104,134)" points="1080.0,259.8076 1100.0,259.8076 1110.0,277.1281 1100.0,294.4486 1080.0,294.4486 1070.0,277.1281" /><polygon fill="rgb(27,104,134)" points="1080.0,294.4486 1100.0,294.4486 1110.0,311.7691 1100.0,329.0897 1080.0,329.0897 1070.0,311.7691" /><polygon fill="rgb(27,102,133)" points="1080.0,329.0897 1100.0,329.0897 1110.0,346.4102 1100.0,363.7307 1080.0,363.7307 1070.0,346.4102" /><polygon fill="rgb(24,105,134)" points="1080.0,363.7307 1100.0,363.7307 1110.0,381.0512 1100.0,398.3717 1080.0,398.3717 1070.0,381.0512" /><polygon fill="rgb(27,102,133)" points="1080.0,398.3717 1100.0,398.3717 1110.0,415.6922 1100.0,433.0127 1080.0,433.0127 1070.0,415.6922" /><polygon fill="rgb(27,104,134)" points="1080.0,433.0127 1100.0,433.0127 1110.0,450.3332 1100.0,467.6537 1080.0,467.6537 1070.0,450.3332" /><polygon fill="rgb(27,102,133)" points="1080.0,467.6537 1100.0,467.6537 1110.0,484.9742 1100.0,502.2947 1080.0,502.2947 1070.0,484.9742" /><polygon fill="rgb(27,102,133)" points="1080.0,502.2947 1100.0,502.2947 1110.0,519.6152 1100.0,536.9358 1080.0,536.9358 1070.0,519.6152" /><polygon fill="rgb(27,104,134)" points="1110.0,0.0 1130.0,0.0 1140.0,17.3205 1130.0,34.641 1110.0,34.641 1100.0,17.3205" /><polygon fill="rgb(27,102,133)" points="1110.0,34.641 1130.0,34.641 1140.0,51.9615 1130.0,69.282 1110.0,69.282 1100.0,51.9615" /><polygon fill="rgb(27,104,134)" points="1110.0,69.282 1130.0,69.282 1140.0,86.6025 1130.0,103.923 1110.0,103.923 1100.0,86.6025" /><polygon fill="rgb(27,104,134)" points="1110.0,103.923 1130.0,103.923 1140.0,121.2436 1130.0,138.5641 1110.0,138.5641 1100.0,121.2436" /><polygon fill="rgb(27,102,133)" points="1110.0,138.5641 1130.0,138.5641 1140.0,155.8846 1130.0,173.2051 1110.0,173.2051 1100.0,155.8846" /><polygon fill="rgb(27,104,134)" points="1110.0,173.2051 1130.0,173.2051 1140.0,190.5256 1130.0,207.8461 1110.0,207.8461 1100.0,190.5256" /><polygon fill="rgb(27,102,133)" points="1110.0,207.8461 1130.0,207.8461 1140.0,225.1666 1130.0,242.4871 1110.0,242.4871 1100.0,225.1666" /><polygon fill="rgb(28,103,134)" points="1110.0,242.4871 1130.0,242.4871 1140.0,259.8076 1130.0,277.1281 1110.0,277.1281 1100.0,259.8076" /><polygon fill="rgb(27,102,133)" points="1110.0,277.1281 1130.0,277.1281 1140.0,294.4486 1130.0,311.7691 1110.0,311.7691 1100.0,294.4486" /><polygon fill="rgb(27,102,133)" points="1110.0,311.7691 1130.0,311.7691 1140.0,329.0897 1130.0,346.4102 1110.0,346.4102 1100.0,329.0897" /><polygon fill="rgb(27,102,133)" points="1110.0,346.4102 1130.0,346.4102 1140.0,363.7307 1130.0,381.0512 1110.0,381.0512 1100.0,363.7307" /><polygon fill="rgb(26,103,133)" points="1110.0,381.0512 1130.0,381.0512 1140.0,398.3717 1130.0,415.6922 1110.0,415.6922 1100.0,398.3717" /><polygon fill="rgb(27,102,133)" points="1110.0,415.6922 1130.0,415.6922 1140.0,433.0127 1130.0,450.3332 1110.0,450.3332 1100.0,433.0127" /><polygon fill="rgb(27,102,133)" points="1110.0,450.3332 1130.0,450.3332 1140.0,467.6537 1130.0,484.9742 1110.0,484.9742 1100.0,467.6537" /><polygon fill="rgb(27,102,133)" points="1110.0,484.9742 1130.0,484.9742 1140.0,502.2947 1130.0,519.6152 1110.0,519.6152 1100.0,502.2947" /><polygon fill="rgb(28,103,132)" points="1140.0,-17.3205 1160.0,-17.3205 1170.0,0.0 1160.0,17.3205 1140.0,17.3205 1130.0,0.0" /><polygon fill="rgb(26,103,133)" points="1140.0,17.3205 1160.0,17.3205 1170.0,34.641 1160.0,51.9615 1140.0,51.9615 1130.0,34.641" /><polygon fill="rgb(27,104,134)" points="1140.0,51.9615 1160.0,51.9615 1170.0,69.282 1160.0,86.6025 1140.0,86.6025 1130.0,69.282" /><polygon fill="rgb(27,104,134)" points="1140.0,86.6025 1160.0,86.6025 1170.0,103.923 1160.0,121.2436 1140.0,121.2436 1130.0,103.923" /><polygon fill="rgb(27,104,134)" points="1140.0,121.2436 1160.0,121.2436 1170.0,138.5641 1160.0,155.8846 1140.0,155.8846 1130.0,138.5641" /><polygon fill="rgb(28,103,134)" points="1140.0,155.8846 1160.0,155.8846 1170.0,173.2051 1160.0,190.5256 1140.0,190.5256 1130.0,173.2051" /><polygon fill="rgb(27,104,134)" points="1140.0,190.5256 1160.0,190.5256 1170.0,207.8461 1160.0,225.1666 1140.0,225.1666 1130.0,207.8461" /><polygon fill="rgb(27,102,133)" points="1140.0,225.1666 1160.0,225.1666 1170.0,242.4871 1160.0,259.8076 1140.0,259.8076 1130.0,242.4871" /><polygon fill="rgb(27,104,134)" points="1140.0,259.8076 1160.0,259.8076 1170.0,277.1281 1160.0,294.4486 1140.0,294.4486 1130.0,277.1281" /><polygon fill="rgb(27,104,134)" points="1140.0,294.4486 1160.0,294.4486 1170.0,311.7691 1160.0,329.0897 1140.0,329.0897 1130.0,311.7691" /><polygon fill="rgb(27,102,133)" points="1140.0,329.0897 1160.0,329.0897 1170.0,346.4102 1160.0,363.7307 1140.0,363.7307 1130.0,346.4102" /><polygon fill="rgb(24,105,134)" points="1140.0,363.7307 1160.0,363.7307 1170.0,381.0512 1160.0,398.3717 1140.0,398.3717 1130.0,381.0512" /><polygon fill="rgb(27,102,133)" points="1140.0,398.3717 1160.0,398.3717 1170.0,415.6922 1160.0,433.0127 1140.0,433.0127 1130.0,415.6922" /><polygon fill="rgb(27,104,134)" points="1140.0,433.0127 1160.0,433.0127 1170.0,450.3332 1160.0,467.6537 1140.0,467.6537 1130.0,450.3332" /><polygon fill="rgb(27,102,133)" points="1140.0,467.6537 1160.0,467.6537 1170.0,484.9742 1160.0,502.2947 1140.0,502.2947 1130.0,484.9742" /><polygon fill="rgb(27,102,133)" points="1140.0,502.2947 1160.0,502.2947 1170.0,519.6152 1160.0,536.9358 1140.0,536.9358 1130.0,519.6152" /><polygon fill="rgb(27,104,134)" points="1170.0,0.0 1190.0,0.0 1200.0,17.3205 1190.0,34.641 1170.0,34.641 1160.0,17.3205" /><polygon fill="rgb(27,102,133)" points="1170.0,34.641 1190.0,34.641 1200.0,51.9615 1190.0,69.282 1170.0,69.282 1160.0,51.9615" /><polygon fill="rgb(27,104,134)" points="1170.0,69.282 1190.0,69.282 1200.0,86.6025 1190.0,103.923 1170.0,103.923 1160.0,86.6025" /><polygon fill="rgb(27,104,134)" points="1170.0,103.923 1190.0,103.923 1200.0,121.2436 1190.0,138.5641 1170.0,138.5641 1160.0,121.2436" /><polygon fill="rgb(27,102,133)" points="1170.0,138.5641 1190.0,138.5641 1200.0,155.8846 1190.0,173.2051 1170.0,173.2051 1160.0,155.8846" /><polygon fill="rgb(27,104,134)" points="1170.0,173.2051 1190.0,173.2051 1200.0,190.5256 1190.0,207.8461 1170.0,207.8461 1160.0,190.5256" /><polygon fill="rgb(27,102,133)" points="1170.0,207.8461 1190.0,207.8461 1200.0,225.1666 1190.0,242.4871 1170.0,242.4871 1160.0,225.1666" /><polygon fill="rgb(28,103,134)" points="1170.0,242.4871 1190.0,242.4871 1200.0,259.8076 1190.0,277.1281 1170.0,277.1281 1160.0,259.8076" /><polygon fill="rgb(27,102,133)" points="1170.0,277.1281 1190.0,277.1281 1200.0,294.4486 1190.0,311.7691 1170.0,311.7691 1160.0,294.4486" /><polygon fill="rgb(27,102,133)" points="1170.0,311.7691 1190.0,311.7691 1200.0,329.0897 1190.0,346.4102 1170.0,346.4102 1160.0,329.0897" /><polygon fill="rgb(27,102,133)" points="1170.0,346.4102 1190.0,346.4102 1200.0,363.7307 1190.0,381.0512 1170.0,381.0512 1160.0,363.7307" /><polygon fill="rgb(26,103,133)" points="1170.0,381.0512 1190.0,381.0512 1200.0,398.3717 1190.0,415.6922 1170.0,415.6922 1160.0,398.3717" /><polygon fill="rgb(27,102,133)" points="1170.0,415.6922 1190.0,415.6922 1200.0,433.0127 1190.0,450.3332 1170.0,450.3332 1160.0,433.0127" /><polygon fill="rgb(27,102,133)" points="1170.0,450.3332 1190.0,450.3332 1200.0,467.6537 1190.0,484.9742 1170.0,484.9742 1160.0,467.6537" /><polygon fill="rgb(27,102,133)" points="1170.0,484.9742 1190.0,484.9742 1200.0,502.2947 1190.0,519.6152 1170.0,519.6152 1160.0,502.2947" /><polygon fill="rgb(28,103,132)" points="1200.0,-17.3205 1220.0,-17.3205 1230.0,0.0 1220.0,17.3205 1200.0,17.3205 1190.0,0.0" /><polygon fill="rgb(26,103,133)" points="1200.0,17.3205 1220.0,17.3205 1230.0,34.641 1220.0,51.9615 1200.0,51.9615 1190.0,34.641" /><polygon fill="rgb(27,104,134)" points="1200.0,51.9615 1220.0,51.9615 1230.0,69.282 1220.0,86.6025 1200.0,86.6025 1190.0,69.282" /><polygon fill="rgb(27,104,134)" points="1200.0,86.6025 1220.0,86.6025 1230.0,103.923 1220.0,121.2436 1200.0,121.2436 1190.0,103.923" /><polygon fill="rgb(27,104,134)" points="1200.0,121.2436 1220.0,121.2436 1230.0,138.5641 1220.0,155.8846 1200.0,155.8846 1190.0,138.5641" /><polygon fill="rgb(28,103,134)" points="1200.0,155.8846 1220.0,155.8846 1230.0,173.2051 1220.0,190.5256 1200.0,190.5256 1190.0,173.2051" /><polygon fill="rgb(27,104,134)" points="1200.0,190.5256 1220.0,190.5256 1230.0,207.8461 1220.0,225.1666 1200.0,225.1666 1190.0,207.8461" /><polygon fill="rgb(27,102,133)" points="1200.0,225.1666 1220.0,225.1666 1230.0,242.4871 1220.0,259.8076 1200.0,259.8076 1190.0,242.4871" /><polygon fill="rgb(27,104,134)" points="1200.0,259.8076 1220.0,259.8076 1230.0,277.1281 1220.0,294.4486 1200.0,294.4486 1190.0,277.1281" /><polygon fill="rgb(27,104,134)" points="1200.0,294.4486 1220.0,294.4486 1230.0,311.7691 1220.0,329.0897 1200.0,329.0897 1190.0,311.7691" /><polygon fill="rgb(27,102,133)" points="1200.0,329.0897 1220.0,329.0897 1230.0,346.4102 1220.0,363.7307 1200.0,363.7307 1190.0,346.4102" /><polygon fill="rgb(24,105,134)" points="1200.0,363.7307 1220.0,363.7307 1230.0,381.0512 1220.0,398.3717 1200.0,398.3717 1190.0,381.0512" /><polygon fill="rgb(27,102,133)" points="1200.0,398.3717 1220.0,398.3717 1230.0,415.6922 1220.0,433.0127 1200.0,433.0127 1190.0,415.6922" /><polygon fill="rgb(27,104,134)" points="1200.0,433.0127 1220.0,433.0127 1230.0,450.3332 1220.0,467.6537 1200.0,467.6537 1190.0,450.3332" /><polygon fill="rgb(27,102,133)" points="1200.0,467.6537 1220.0,467.6537 1230.0,484.9742 1220.0,502.2947 1200.0,502.2947 1190.0,484.9742" /><polygon fill="rgb(27,102,133)" points="1200.0,502.2947 1220.0,502.2947 1230.0,519.6152 1220.0,536.9358 1200.0,536.9358 1190.0,519.6152" /><polygon fill="rgb(27,104,134)" points="1230.0,0.0 1250.0,0.0 1260.0,17.3205 1250.0,34.641 1230.0,34.641 1220.0,17.3205" /><polygon fill="rgb(27,102,133)" points="1230.0,34.641 1250.0,34.641 1260.0,51.9615 1250.0,69.282 1230.0,69.282 1220.0,51.9615" /><polygon fill="rgb(27,104,134)" points="1230.0,69.282 1250.0,69.282 1260.0,86.6025 1250.0,103.923 1230.0,103.923 1220.0,86.6025" /><polygon fill="rgb(27,104,134)" points="1230.0,103.923 1250.0,103.923 1260.0,121.2436 1250.0,138.5641 1230.0,138.5641 1220.0,121.2436" /><polygon fill="rgb(27,102,133)" points="1230.0,138.5641 1250.0,138.5641 1260.0,155.8846 1250.0,173.2051 1230.0,173.2051 1220.0,155.8846" /><polygon fill="rgb(27,104,134)" points="1230.0,173.2051 1250.0,173.2051 1260.0,190.5256 1250.0,207.8461 1230.0,207.8461 1220.0,190.5256" /><polygon fill="rgb(27,102,133)" points="1230.0,207.8461 1250.0,207.8461 1260.0,225.1666 1250.0,242.4871 1230.0,242.4871 1220.0,225.1666" /><polygon fill="rgb(28,103,134)" points="1230.0,242.4871 1250.0,242.4871 1260.0,259.8076 1250.0,277.1281 1230.0,277.1281 1220.0,259.8076" /><polygon fill="rgb(27,102,133)" points="1230.0,277.1281 1250.0,277.1281 1260.0,294.4486 1250.0,311.7691 1230.0,311.7691 1220.0,294.4486" /><polygon fill="rgb(27,102,133)" points="1230.0,311.7691 1250.0,311.7691 1260.0,329.0897 1250.0,346.4102 1230.0,346.4102 1220.0,329.0897" /><polygon fill="rgb(27,102,133)" points="1230.0,346.4102 1250.0,346.4102 1260.0,363.7307 1250.0,381.0512 1230.0,381.0512 1220.0,363.7307" /><polygon fill="rgb(26,103,133)" points="1230.0,381.0512 1250.0,381.0512 1260.0,398.3717 1250.0,415.6922 1230.0,415.6922 1220.0,398.3717" /><polygon fill="rgb(27,102,133)" points="1230.0,415.6922 1250.0,415.6922 1260.0,433.0127 1250.0,450.3332 1230.0,450.3332 1220.0,433.0127" /><polygon fill="rgb(27,102,133)" points="1230.0,450.3332 1250.0,450.3332 1260.0,467.6537 1250.0,484.9742 1230.0,484.9742 1220.0,467.6537" /><polygon fill="rgb(27,102,133)" points="1230.0,484.9742 1250.0,484.9742 1260.0,502.2947 1250.0,519.6152 1230.0,519.6152 1220.0,502.2947" /><polygon fill="rgb(28,103,132)" points="1260.0,-17.3205 1280.0,-17.3205 1290.0,0.0 1280.0,17.3205 1260.0,17.3205 1250.0,0.0" /><polygon fill="rgb(26,103,133)" points="1260.0,17.3205 1280.0,17.3205 1290.0,34.641 1280.0,51.9615 1260.0,51.9615 1250.0,34.641" /><polygon fill="rgb(27,104,134)" points="1260.0,51.9615 1280.0,51.9615 1290.0,69.282 1280.0,86.6025 1260.0,86.6025 1250.0,69.282" /><polygon fill="rgb(27,104,134)" points="1260.0,86.6025 1280.0,86.6025 1290.0,103.923 1280.0,121.2436 1260.0,121.2436 1250.0,103.923" /><polygon fill="rgb(27,104,134)" points="1260.0,121.2436 1280.0,121.2436 1290.0,138.5641 1280.0,155.8846 1260.0,155.8846 1250.0,138.5641" /><polygon fill="rgb(28,103,134)" points="1260.0,155.8846 1280.0,155.8846 1290.0,173.2051 1280.0,190.5256 1260.0,190.5256 1250.0,173.2051" /><polygon fill="rgb(27,104,134)" points="1260.0,190.5256 1280.0,190.5256 1290.0,207.8461 1280.0,225.1666 1260.0,225.1666 1250.0,207.8461" /><polygon fill="rgb(27,102,133)" points="1260.0,225.1666 1280.0,225.1666 1290.0,242.4871 1280.0,259.8076 1260.0,259.8076 1250.0,242.4871" /><polygon fill="rgb(27,104,134)" points="1260.0,259.8076 1280.0,259.8076 1290.0,277.1281 1280.0,294.4486 1260.0,294.4486 1250.0,277.1281" /><polygon fill="rgb(27,104,134)" points="1260.0,294.4486 1280.0,294.4486 1290.0,311.7691 1280.0,329.0897 1260.0,329.0897 1250.0,311.7691" /><polygon fill="rgb(27,102,133)" points="1260.0,329.0897 1280.0,329.0897 1290.0,346.4102 1280.0,363.7307 1260.0,363.7307 1250.0,346.4102" /><polygon fill="rgb(24,105,134)" points="1260.0,363.7307 1280.0,363.7307 1290.0,381.0512 1280.0,398.3717 1260.0,398.3717 1250.0,381.0512" /><polygon fill="rgb(27,102,133)" points="1260.0,398.3717 1280.0,398.3717 1290.0,415.6922 1280.0,433.0127 1260.0,433.0127 1250.0,415.6922" /><polygon fill="rgb(27,104,134)" points="1260.0,433.0127 1280.0,433.0127 1290.0,450.3332 1280.0,467.6537 1260.0,467.6537 1250.0,450.3332" /><polygon fill="rgb(27,102,133)" points="1260.0,467.6537 1280.0,467.6537 1290.0,484.9742 1280.0,502.2947 1260.0,502.2947 1250.0,484.9742" /><polygon fill="rgb(27,102,133)" points="1260.0,502.2947 1280.0,502.2947 1290.0,519.6152 1280.0,536.9358 1260.0,536.9358 1250.0,519.6152" /><polygon fill="rgb(27,104,134)" points="1290.0,0.0 1310.0,0.0 1320.0,17.3205 1310.0,34.641 1290.0,34.641 1280.0,17.3205" /><polygon fill="rgb(27,102,133)" points="1290.0,34.641 1310.0,34.641 1320.0,51.9615 1310.0,69.282 1290.0,69.282 1280.0,51.9615" /><polygon fill="rgb(27,104,134)" points="1290.0,69.282 1310.0,69.282 1320.0,86.6025 1310.0,103.923 1290.0,103.923 1280.0,86.6025" /><polygon fill="rgb(27,104,134)" points="1290.0,103.923 1310.0,103.923 1320.0,121.2436 1310.0,138.5641 1290.0,138.5641 1280.0,121.2436" /><polygon fill="rgb(27,102,133)" points="1290.0,138.5641 1310.0,138.5641 1320.0,155.8846 1310.0,173.2051 1290.0,173.2051 1280.0,155.8846" /><polygon fill="rgb(27,104,134)" points="1290.0,173.2051 1310.0,173.2051 1320.0,190.5256 1310.0,207.8461 1290.0,207.8461 1280.0,190.5256" /><polygon fill="rgb(27,102,133)" points="1290.0,207.8461 1310.0,207.8461 1320.0,225.1666 1310.0,242.4871 1290.0,242.4871 1280.0,225.1666" /><polygon fill="rgb(28,103,134)" points="1290.0,242.4871 1310.0,242.4871 1320.0,259.8076 1310.0,277.1281 1290.0,277.1281 1280.0,259.8076" /><polygon fill="rgb(27,102,133)" points="1290.0,277.1281 1310.0,277.1281 1320.0,294.4486 1310.0,311.7691 1290.0,311.7691 1280.0,294.4486" /><polygon fill="rgb(27,102,133)" points="1290.0,311.7691 1310.0,311.7691 1320.0,329.0897 1310.0,346.4102 1290.0,346.4102 1280.0,329.0897" /><polygon fill="rgb(27,102,133)" points="1290.0,346.4102 1310.0,346.4102 1320.0,363.7307 1310.0,381.0512 1290.0,381.0512 1280.0,363.7307" /><polygon fill="rgb(26,103,133)" points="1290.0,381.0512 1310.0,381.0512 1320.0,398.3717 1310.0,415.6922 1290.0,415.6922 1280.0,398.3717" /><polygon fill="rgb(27,102,133)" points="1290.0,415.6922 1310.0,415.6922 1320.0,433.0127 1310.0,450.3332 1290.0,450.3332 1280.0,433.0127" /><polygon fill="rgb(27,102,133)" points="1290.0,450.3332 1310.0,450.3332 1320.0,467.6537 1310.0,484.9742 1290.0,484.9742 1280.0,467.6537" /><polygon fill="rgb(27,102,133)" points="1290.0,484.9742 1310.0,484.9742 1320.0,502.2947 1310.0,519.6152 1290.0,519.6152 1280.0,502.2947" /><polygon fill="rgb(28,103,132)" points="1320.0,-17.3205 1340.0,-17.3205 1350.0,0.0 1340.0,17.3205 1320.0,17.3205 1310.0,0.0" /><polygon fill="rgb(26,103,133)" points="1320.0,17.3205 1340.0,17.3205 1350.0,34.641 1340.0,51.9615 1320.0,51.9615 1310.0,34.641" /><polygon fill="rgb(27,104,134)" points="1320.0,51.9615 1340.0,51.9615 1350.0,69.282 1340.0,86.6025 1320.0,86.6025 1310.0,69.282" /><polygon fill="rgb(27,104,134)" points="1320.0,86.6025 1340.0,86.6025 1350.0,103.923 1340.0,121.2436 1320.0,121.2436 1310.0,103.923" /><polygon fill="rgb(27,104,134)" points="1320.0,121.2436 1340.0,121.2436 1350.0,138.5641 1340.0,155.8846 1320.0,155.8846 1310.0,138.5641" /><polygon fill="rgb(28,103,134)" points="1320.0,155.8846 1340.0,155.8846 1350.0,173.2051 1340.0,190.5256 1320.0,190.5256 1310.0,173.2051" /><polygon fill="rgb(27,104,134)" points="1320.0,190.5256 1340.0,190.5256 1350.0,207.8461 1340.0,225.1666 1320.0,225.1666 1310.0,207.8461" /><polygon fill="rgb(27,102,133)" points="1320.0,225.1666 1340.0,225.1666 1350.0,242.4871 1340.0,259.8076 1320.0,259.8076 1310.0,242.4871" /><polygon fill="rgb(27,104,134)" points="1320.0,259.8076 1340.0,259.8076 1350.0,277.1281 1340.0,294.4486 1320.0,294.4486 1310.0,277.1281" /><polygon fill="rgb(27,104,134)" points="1320.0,294.4486 1340.0,294.4486 1350.0,311.7691 1340.0,329.0897 1320.0,329.0897 1310.0,311.7691" /><polygon fill="rgb(27,102,133)" points="1320.0,329.0897 1340.0,329.0897 1350.0,346.4102 1340.0,363.7307 1320.0,363.7307 1310.0,346.4102" /><polygon fill="rgb(24,105,134)" points="1320.0,363.7307 1340.0,363.7307 1350.0,381.0512 1340.0,398.3717 1320.0,398.3717 1310.0,381.0512" /><polygon fill="rgb(27,102,133)" points="1320.0,398.3717 1340.0,398.3717 1350.0,415.6922 1340.0,433.0127 1320.0,433.0127 1310.0,415.6922" /><polygon fill="rgb(27,104,134)" points="1320.0,433.0127 1340.0,433.0127 1350.0,450.3332 1340.0,467.6537 1320.0,467.6537 1310.0,450.3332" /><polygon fill="rgb(27,102,133)" points="1320.0,467.6537 1340.0,467.6537 1350.0,484.9742 1340.0,502.2947 1320.0,502.2947 1310.0,484.9742" /><polygon fill="rgb(27,102,133)" points="1320.0,502.2947 1340.0,502.2947 1350.0,519.6152 1340.0,536.9358 1320.0,536.9358 1310.0,519.6152" /></svg>